<svg xmlns="http://www.w3.org/2000/svg" xmlns:xlink="http://www.w3.org/1999/xlink" width="130" height="37" viewBox="0 0 130 37"><defs><style>.a{fill:url(#a);}.b,.c,.d{fill:#fff;}.c{font-size:8px;font-family:Montserrat-Regular, Montserrat;}.d{font-size:13px;font-family:Montserrat-SemiBold, Montserrat;font-weight:600;}</style><linearGradient id="a" y1="0.5" x2="1" y2="0.5" gradientUnits="objectBoundingBox"><stop offset="0" stop-color="#a100fe"/><stop offset="1" stop-color="#d515c8"/></linearGradient></defs><g transform="translate(-561.482 -109.02)"><path class="a" d="M10,0H120a10,10,0,0,1,10,10V27a10,10,0,0,1-10,10H10A10,10,0,0,1,0,27V10A10,10,0,0,1,10,0Z" transform="translate(561.482 109.02)"/><g transform="translate(571.051 115.557)"><path class="b" d="M564.9,116.537c-1.974,3.424-.721,8.622,1.464,11.775,1.088,1.574,2.192,2.989,3.7,2.989l.086,0a4.57,4.57,0,0,0,1.72-.456,4.7,4.7,0,0,1,2.036-.483,4.413,4.413,0,0,1,1.936.467,4.121,4.121,0,0,0,1.858.445c1.7-.032,2.746-1.558,3.67-2.905a12.878,12.878,0,0,0,1.606-3.291l.005-.022a.192.192,0,0,0-.1-.235l-.016-.005a4.873,4.873,0,0,1-2.954-4.466,5.02,5.02,0,0,1,2.371-4.2l.019-.011a.189.189,0,0,0,.084-.124.186.186,0,0,0-.03-.146,5.514,5.514,0,0,0-4.342-2.357,3.506,3.506,0,0,0-.378-.019,7.6,7.6,0,0,0-2.727.68,4.34,4.34,0,0,1-1.3.389,4.236,4.236,0,0,1-1.353-.394,6.532,6.532,0,0,0-2.379-.6l-.062,0A5.83,5.83,0,0,0,564.9,116.537Z" transform="translate(-563.915 -107.955)"/><path class="b" d="M572.17,111.441a5.336,5.336,0,0,0-3.521,1.8,5,5,0,0,0-1.264,3.7.193.193,0,0,0,.176.165c.081.005.165.011.245.011a4.516,4.516,0,0,0,3.324-1.7,5.274,5.274,0,0,0,1.237-3.81A.191.191,0,0,0,572.17,111.441Z" transform="translate(-558.068 -111.441)"/></g><g transform="translate(600.361 114.14)"><text class="c" transform="translate(0 8)"><tspan x="0" y="0">Загрузить из</tspan></text><text class="d" transform="translate(33.011 22.669)"><tspan x="-33.208" y="0">App Store</tspan></text></g></g></svg>