<svg xmlns="http://www.w3.org/2000/svg" xmlns:xlink="http://www.w3.org/1999/xlink" width="130" height="37" viewBox="0 0 130 37"><defs><style>.a{fill:url(#a);}.b,.c,.d{fill:#fff;}.b{font-size:8px;font-family:Montserrat-Regular, Montserrat;}.c{font-size:13px;font-family:Montserrat-SemiBold, Montserrat;font-weight:600;}</style><linearGradient id="a" y1="0.5" x2="1" y2="0.5" gradientUnits="objectBoundingBox"><stop offset="0" stop-color="#a100fe"/><stop offset="1" stop-color="#d515c8"/></linearGradient></defs><rect class="a" width="130" height="37" rx="10"/><g transform="translate(35.083 4.12)"><text class="b" transform="translate(3.565 9)"><tspan x="0" y="0">Доступно в</tspan></text><text class="c" transform="translate(43.565 23.669)"><tspan x="-39.865" y="0">Google Play</tspan></text></g><g transform="translate(11.509 8.107)"><path class="d" d="M623.93,116.986l-3.95-2.28-3.249,3.14,2.97,2.869,4.229-2.441a.743.743,0,0,0,0-1.288Z" transform="translate(-604.792 -106.929)"/><path class="d" d="M625.694,118.716l-4.347-2.509-9.525-4.881,10.758,10.4Z" transform="translate(-611.177 -111.325)"/><path class="d" d="M611.891,126.542l9.383-5.169,4.051-2.338-2.833-2.739Z" transform="translate(-611.087 -104.861)"/><path class="d" d="M611.552,111.508l-.01,21L622.41,122Z" transform="translate(-611.542 -111.088)"/></g></svg>