<svg xmlns="http://www.w3.org/2000/svg" width="182.13" height="32" viewBox="0 0 182.13 32"><defs><style>.a,.b{fill:#5e09d5;}.a,.c{fill-rule:evenodd;}.c{fill:#00d6c1;}</style></defs><g transform="translate(-0.003)"><path class="a" d="M76.666,16.676a4.265,4.265,0,0,0,7.1-1.777H88.8a9.2,9.2,0,0,1-15.62,5.266L71.3,22.038V14.9h7.138l-1.777,1.777ZM79.682,4.465a9.177,9.177,0,0,1,6.5,2.692l1.863-1.869v7.138H80.933L82.7,10.649a4.266,4.266,0,0,0-7.1,1.777H70.566A9.2,9.2,0,0,1,79.682,4.465Z" transform="translate(33.054 2.092)"/><path class="b" d="M99.025,10.994H95.994V6.554h3.031V0h5.288V6.554h4.264v4.441h-4.264v6.579a3.837,3.837,0,0,0,.142,1.082,1.739,1.739,0,0,0,.493.815,1.971,1.971,0,0,0,1.376.476,2.735,2.735,0,0,0,.952-.142,2.468,2.468,0,0,0,.67-.352l1.48,4.583a10.3,10.3,0,0,1-1.974.671,9.979,9.979,0,0,1-2.255.247A5.888,5.888,0,0,1,100.79,23.3a5.782,5.782,0,0,1-1.3-2.144,8.311,8.311,0,0,1-.458-2.825V11Z" transform="translate(44.965)"/><path class="b" d="M92.434,22.858a10.833,10.833,0,0,1-3.17-.423,8.776,8.776,0,0,1-2.379-1.11,6.973,6.973,0,0,1-1.675-1.584,7.74,7.74,0,0,1-1.022-1.814l4.759-2.009a3.569,3.569,0,0,0,1.374,1.746,3.932,3.932,0,0,0,2.113.546,3.33,3.33,0,0,0,1.639-.333.985.985,0,0,0,.58-.862,1.036,1.036,0,0,0-.565-.934,6.571,6.571,0,0,0-1.8-.614l-2.36-.495A8.768,8.768,0,0,1,88.2,14.41a6.536,6.536,0,0,1-1.621-1.023,5.071,5.071,0,0,1-1.2-1.5,4.182,4.182,0,0,1-.457-1.99,4.611,4.611,0,0,1,.546-2.238,5.189,5.189,0,0,1,1.5-1.708A7.2,7.2,0,0,1,89.224,4.86a9.917,9.917,0,0,1,2.855-.391A10.56,10.56,0,0,1,96.7,5.4,6.1,6.1,0,0,1,99.622,8.52L95.075,10.39a2.908,2.908,0,0,0-1.285-1.338,3.667,3.667,0,0,0-1.675-.423,2.969,2.969,0,0,0-1.479.319.908.908,0,0,0-.567.775.9.9,0,0,0,.581.794,6.649,6.649,0,0,0,1.427.51l2.68.633A7.667,7.667,0,0,1,98.7,13.7a4.829,4.829,0,0,1,.756,5.535A5.783,5.783,0,0,1,97.909,21.1a7.728,7.728,0,0,1-2.4,1.285,9.443,9.443,0,0,1-3.084.476Z" transform="translate(39.434 2.093)"/><path class="b" d="M60.16,18.1a9.62,9.62,0,0,1-3.332,3.489,9.323,9.323,0,0,1-4.987,1.27,9.915,9.915,0,0,1-3.718-.686,9.041,9.041,0,0,1-2.978-1.922,8.719,8.719,0,0,1-1.975-2.907,9.392,9.392,0,0,1-.7-3.683,9.138,9.138,0,0,1,2.661-6.468A9.5,9.5,0,0,1,48.052,5.2,8.923,8.923,0,0,1,51.7,4.463a9.523,9.523,0,0,1,3.789.7A7.667,7.667,0,0,1,58.218,7.09a8.19,8.19,0,0,1,1.656,2.855,10.675,10.675,0,0,1,.565,3.508c0,.188-.006.376-.019.561s-.031.352-.051.495a3.062,3.062,0,0,0-.035.458H47.613A3.8,3.8,0,0,0,49.2,17.432a4.83,4.83,0,0,0,2.678.775,4.4,4.4,0,0,0,2.451-.633,4.719,4.719,0,0,0,1.532-1.623Zm-4.689-6.73a2.981,2.981,0,0,0-.333-.915,3.137,3.137,0,0,0-.742-.9,4.007,4.007,0,0,0-1.162-.67A4.246,4.246,0,0,0,51.7,8.623a4.047,4.047,0,0,0-3.841,2.746h7.611Z" transform="translate(19.89 2.091)"/><path class="b" d="M33.281,5.027h4.935V7.212h.352a6.14,6.14,0,0,1,2.007-1.937,5.352,5.352,0,0,1,2.89-.811,5.241,5.241,0,0,1,1.656.235,5.088,5.088,0,0,1,1.162.517L44.909,9.926a4.568,4.568,0,0,0-.971-.386A5.1,5.1,0,0,0,42.616,9.4,3.539,3.539,0,0,0,39.6,10.772a5.8,5.8,0,0,0-1.038,3.593V22.86H33.278V5.027Z" transform="translate(15.587 2.092)"/><path class="b" d="M36.717,18.1a9.608,9.608,0,0,1-3.332,3.489,9.323,9.323,0,0,1-4.987,1.27,9.9,9.9,0,0,1-3.717-.686A9.047,9.047,0,0,1,21.7,20.253a8.715,8.715,0,0,1-1.974-2.907,9.392,9.392,0,0,1-.7-3.683,9.138,9.138,0,0,1,2.661-6.468A9.514,9.514,0,0,1,24.61,5.2a8.923,8.923,0,0,1,3.646-.742,9.518,9.518,0,0,1,3.789.7A7.654,7.654,0,0,1,34.776,7.09a8.168,8.168,0,0,1,1.656,2.855A10.675,10.675,0,0,1,37,13.453c0,.188-.006.376-.018.561s-.031.352-.053.495a3.049,3.049,0,0,0-.034.458H24.171a3.8,3.8,0,0,0,1.586,2.465,4.83,4.83,0,0,0,2.678.775,4.392,4.392,0,0,0,2.451-.633,4.737,4.737,0,0,0,1.533-1.623Zm-4.687-6.73a3.027,3.027,0,0,0-.335-.915,3.137,3.137,0,0,0-.742-.9,3.968,3.968,0,0,0-1.162-.67,4.241,4.241,0,0,0-1.533-.266,4.043,4.043,0,0,0-3.84,2.746H32.03Z" transform="translate(8.91 2.091)"/><path class="b" d="M5.811,10.927V0h9.022a10.364,10.364,0,0,1,3.576.6,8.641,8.641,0,0,1,2.837,1.675,7.55,7.55,0,0,1,1.869,2.589,7.637,7.637,0,0,1,.671,3.223,8.832,8.832,0,0,1-.671,3.473,7.474,7.474,0,0,1-1.869,2.589,8.591,8.591,0,0,1-2.837,1.675,10.376,10.376,0,0,1-3.576.6H11.307v-5.5Zm9.2,0a3.5,3.5,0,0,0,2.574-.847,2.572,2.572,0,0,0,.847-1.993,2.638,2.638,0,0,0-.847-2.023,3.5,3.5,0,0,0-2.574-.847h-3.7v5.711Z" transform="translate(2.721)"/><path class="c" d="M0,7.441H14.029V21.466h-5.5V12.938H0Z" transform="translate(0 3.485)"/><path class="c" d="M119.518,0a12.474,12.474,0,1,1-12.474,12.474A12.476,12.476,0,0,1,119.518,0Zm-4.311,17.038a4.53,4.53,0,0,1-.772-.065,3.871,3.871,0,0,1-.708-.2,3.089,3.089,0,0,1-1.15-.772,3.344,3.344,0,0,1-.417-.562,3.691,3.691,0,0,1-.305-.667,4.24,4.24,0,0,1-.188-.769,5.767,5.767,0,0,1-.062-.862V7.916h2.27v5.347a2.271,2.271,0,0,0,.09.655,1.607,1.607,0,0,0,.26.512,1.048,1.048,0,0,0,.4.322,1.438,1.438,0,0,0,.576.107,1.421,1.421,0,0,0,.574-.107,1.042,1.042,0,0,0,.4-.322,1.607,1.607,0,0,0,.26-.512,2.309,2.309,0,0,0,.09-.659V7.913h2.27v5.228a5.225,5.225,0,0,1-.062.811,4.313,4.313,0,0,1-.185.747,3.7,3.7,0,0,1-.305.668,3.378,3.378,0,0,1-.414.568,3.336,3.336,0,0,1-1.144.812,3.416,3.416,0,0,1-.708.22,4.276,4.276,0,0,1-.775.07Zm5.432-2.389,3.916-4.557h-3.777V7.916h6.6v2.138l-3.9,4.617h3.946v2.176h-6.837V14.7l.048-.059Z" transform="translate(50.141 0)"/><path class="a" d="M61.419,21.814v8.1H56.484V13.663a9.2,9.2,0,1,1,4.935,8.151ZM65.684,9.4a4.264,4.264,0,1,1-4.264,4.264A4.264,4.264,0,0,1,65.684,9.4Z" transform="translate(26.457 2.091)"/></g></svg>