<svg xmlns="http://www.w3.org/2000/svg" xmlns:xlink="http://www.w3.org/1999/xlink" width="61.068" height="49.644" viewBox="0 0 61.068 49.644"><defs><style>.a{stroke:rgba(0,0,0,0);fill:url(#a);}</style><linearGradient id="a" x1="0.821" y1="0.901" x2="0.199" y2="0.122" gradientUnits="objectBoundingBox"><stop offset="0" stop-color="#ff5f6d"/><stop offset="1" stop-color="#ffc371"/></linearGradient></defs><g transform="translate(-225.5 -231.178)"><path class="a" d="M-212.863-946.98v.621a.879.879,0,0,1-.878.879h-2.637v.922a.879.879,0,0,1-.879.879h-10.864a.879.879,0,0,1-.879-.879.879.879,0,0,1,.879-.878h6.47v-.879a.879.879,0,0,1,.878-.879.88.88,0,0,1,.879.879v.879h1.757v-21.093h-9.106v18.456a.878.878,0,0,1-.878.878.88.88,0,0,1-.879-.878v-19.336a.879.879,0,0,1,.879-.878h10.864a.878.878,0,0,1,.879.878v.878h2.637a.879.879,0,0,1,.878.88v.734c6.392-.893,9.964.35,16.744,2.713,2.067.721,4.411,1.536,7.255,2.445l.037.014.035.012.009,0,.009,0a3.6,3.6,0,0,1,2.172,4.478,3.9,3.9,0,0,1-3.687,2.836,4.167,4.167,0,0,1-.761-.073c-1.687-.318-12.155-1.736-12.262-1.751a.878.878,0,0,1-.752-.989.877.877,0,0,1,.989-.752c.433.058,10.617,1.44,12.349,1.765a2.11,2.11,0,0,0,2.44-1.539,1.863,1.863,0,0,0-1.153-2.346c-2.848-.911-5.19-1.727-7.258-2.448-6.8-2.368-10.04-3.5-16.164-2.6v14.36c3.088.669,15.715,3.344,20.215,3.344,4.06,0,16.138-9.03,20.5-12.551.644-.652,1.958-2.251,1.117-3.707a2.642,2.642,0,0,0-3.6-.966l-.049.026c-.051.026-5.171,2.552-9.374,4.321a.879.879,0,0,1-1.151-.469.879.879,0,0,1,.469-1.152c4.009-1.687,8.872-4.077,9.253-4.264a4.4,4.4,0,0,1,5.978,1.624c1.015,1.759.482,3.95-1.427,5.863a.787.787,0,0,1-.07.063c-.039.031-4.033,3.251-8.62,6.427-6.36,4.4-10.621,6.543-13.024,6.543C-197.213-943.678-209.184-946.186-212.863-946.98Zm-3.515-.258h1.758v-17.533h-1.758Zm9.967-26.036v-3.516a4.988,4.988,0,0,1,4.982-4.982,4.987,4.987,0,0,1,4.981,4.982v3.516a4.987,4.987,0,0,1-4.981,4.982A4.988,4.988,0,0,1-206.411-973.274Zm4.982,3.224a3.228,3.228,0,0,0,3.209-2.934,4.96,4.96,0,0,1-3.209,1.175,4.957,4.957,0,0,1-3.21-1.175A3.227,3.227,0,0,0-201.429-970.051Zm-3.225-6.74a3.228,3.228,0,0,0,3.225,3.224,3.227,3.227,0,0,0,3.223-3.224,3.228,3.228,0,0,0-3.223-3.225A3.229,3.229,0,0,0-204.654-976.791Zm11.137-4.1v-3.516a7.92,7.92,0,0,1,7.912-7.912,7.92,7.92,0,0,1,7.912,7.912v3.531a7.921,7.921,0,0,1-7.912,7.9A7.92,7.92,0,0,1-193.517-980.894Zm7.912,6.154a6.165,6.165,0,0,0,5.9-4.4,7.889,7.889,0,0,1-5.9,2.646,7.9,7.9,0,0,1-5.9-2.647A6.165,6.165,0,0,0-185.605-974.74Zm-6.154-9.67a6.162,6.162,0,0,0,6.154,6.154,6.162,6.162,0,0,0,6.154-6.154,6.162,6.162,0,0,0-6.154-6.154A6.162,6.162,0,0,0-191.759-984.41Zm-10.549,8.791v-2.345a.878.878,0,0,1,.879-.878.878.878,0,0,1,.878.878v2.345a.88.88,0,0,1-.878.88A.88.88,0,0,1-202.308-975.619Zm16.7-5.567a.879.879,0,0,1-.879-.879v-4.689a.88.88,0,0,1,.88-.879.88.88,0,0,1,.879.88l0,4.689a.878.878,0,0,1-.878.878Z" transform="translate(455 1224)"/></g></svg>