<svg xmlns="http://www.w3.org/2000/svg" xmlns:xlink="http://www.w3.org/1999/xlink" width="54.011" height="54.985" viewBox="0 0 54.011 54.985"><defs><style>.a{fill:url(#a);}</style><linearGradient id="a" x1="0.821" y1="0.901" x2="0.199" y2="0.122" gradientUnits="objectBoundingBox"><stop offset="0" stop-color="#d50000"/><stop offset="1" stop-color="#fe7154"/></linearGradient></defs><path class="a" d="M277.64,266.724h-7.777a21.883,21.883,0,0,0-26.142-35.1v-3.9a1.719,1.719,0,0,0-2.617-1.463l-7.758,4.775a1.73,1.73,0,0,0-.817,1.463v11.659h-1.592a.806.806,0,0,0-.806.806v5.307a.806.806,0,1,0,1.611,0v-4.5h12.765v11.091H231.743v-3.582a.806.806,0,1,0-1.611,0v3.582h-1.205a1.933,1.933,0,0,0-1.93,1.931v15.848a6.358,6.358,0,0,0,6.351,6.351H242.9a6.35,6.35,0,0,0,5.3-2.852h19.548a.806.806,0,1,0,0-1.611H249.014c.405-1.411.173-1.991.24-8.187H277.64a1.759,1.759,0,0,1,1.757,1.757,6.438,6.438,0,0,1-6.431,6.431h-2.21a.806.806,0,0,0,0,1.611h2.21a8.051,8.051,0,0,0,8.043-8.042A3.372,3.372,0,0,0,277.64,266.724ZM234.191,232.4c7.935-4.885,7.92-4.966,7.92-4.685v16.387l-.017.048H234.14C234.161,231.744,234.094,232.464,234.191,232.4Zm11.123,11.749h-1.507a13.9,13.9,0,1,1,5.447,16.734v-1.671a2.364,2.364,0,0,0-2.361-2.361h-.775v-11.9A.805.805,0,0,0,245.313,244.153Zm-16.387,14.314h17.911a.806.806,0,0,1,.806.806v12.554H228.608v-13.04A.319.319,0,0,1,228.927,258.467ZM242.9,279.374h-9.555a4.746,4.746,0,0,1-4.74-4.741v-1.2h19.035v1.2A4.746,4.746,0,0,1,242.9,279.374Zm6.352-12.65v-3.96a15.525,15.525,0,1,0-5.532-21.956v-7.133a20.272,20.272,0,1,1,23.229,33.05h-17.7Z" transform="translate(-226.997 -226)"/></svg>