<svg xmlns="http://www.w3.org/2000/svg" xmlns:xlink="http://www.w3.org/1999/xlink" width="54.243" height="60" viewBox="0 0 54.243 60"><defs><style>.a{fill:url(#a);}</style><linearGradient id="a" x1="0.821" y1="0.901" x2="0.199" y2="0.122" gradientUnits="objectBoundingBox"><stop offset="0" stop-color="#018ef9"/><stop offset="1" stop-color="#6bcffe"/></linearGradient></defs><g transform="translate(-229.313 -226)"><path class="a" d="M239.733,268.463a.879.879,0,1,0,1.757,0V253.729a.879.879,0,1,0-1.757,0v3.686l-8.221-2.262,1.173-7.512a3.909,3.909,0,0,1,2.409-3.016l11.573-4.6,5.792,6.926a.88.88,0,0,0,1.131.188l1.784-1.084v9.409a.879.879,0,0,0,1.758,0V246.06l1.784,1.084a.879.879,0,0,0,1.13-.188l5.883-7.034c6.653,2.618,6.422,2.608,6.736,2.608a.88.88,0,0,0,.325-1.7l-6.192-2.458a.878.878,0,0,0-.21-.419c-2.243-2.489-2.1-2.335-2.16-2.391-.442-.393-.33-.155-7.115-.225v-.884a4.274,4.274,0,1,0-5.153-4.183.879.879,0,0,0,1.758,0,2.516,2.516,0,1,1,2.516,2.517.878.878,0,0,0-.878.878v1.672c-7.005,0-7.021-.13-7.425.18-.1.078,0-.019-2.214,2.436a.874.874,0,0,0-.225.569l-11.247,4.466a5.671,5.671,0,0,0-3.5,4.378l-1.605,10.272a2.571,2.571,0,0,0,1.821,2.861l8.568,2.485Zm16.52-25.266-3.148-3.434,3.329-2.589,3.118,2.424Zm2.93,2.052-1.559-.947,6.211-6.776.937,1.041Zm1.56-6.951-1.543-1.2h2.643Zm-7.074-1.2-1.755,1.365-1.251-1.365Zm-5,.428,6.211,6.776-1.559.947-5.589-6.682Zm-17.017,21.289a.811.811,0,0,1-.574-.9l.159-1.012,8.494,2.337v1.92Z"/><path class="a" d="M283.525,257.642l-1.6-10.272a5.672,5.672,0,0,0-3.5-4.378l-2.152-.855a.879.879,0,0,0-.649,1.633l2.153.855a3.908,3.908,0,0,1,2.408,3.016l1.174,7.512-8.584,2.362v-3.786a.879.879,0,0,0-1.758,0v25.609H241.49v-7.6a.879.879,0,0,0-1.757,0v12.11A2.149,2.149,0,0,0,241.88,286h28.746a2.15,2.15,0,0,0,2.147-2.147v-20.76l8.931-2.59A2.571,2.571,0,0,0,283.525,257.642Zm-41.6,26.6a.441.441,0,0,1-.44-.44V281.1h29.525V283.8a.44.44,0,0,1-.439.439H241.93Zm39.284-25.428-8.441,2.448v-1.925l8.857-2.437.158,1.012A.81.81,0,0,1,281.214,258.815Z"/></g></svg>