<svg xmlns="http://www.w3.org/2000/svg" xmlns:xlink="http://www.w3.org/1999/xlink" width="60.901" height="61" viewBox="0 0 60.901 61"><defs><linearGradient id="a" x1="0.821" y1="0.901" x2="0.199" y2="0.122" gradientUnits="objectBoundingBox"><stop offset="0" stop-color="#49b825"/><stop offset="1" stop-color="#8ddc15"/></linearGradient></defs><g transform="translate(-225.126 -225.5)"><path d="M276.506,264.035a43.25,43.25,0,0,0-.322-6.448c-.09-.727-.207-1.517-.359-2.351h3.738a.892.892,0,0,0,.892-.892v-8.678a.892.892,0,0,0-.892-.892h-4.34a5.216,5.216,0,0,0-2.679.737q-.4-.736-.855-1.453a4.4,4.4,0,0,0,.086-.873,4.461,4.461,0,0,0-3.7-4.391l-1.62-8.637a.892.892,0,0,0-.876-.728H263.29V228.4a2.4,2.4,0,0,0-4.807,0v4.534a2.4,2.4,0,0,0,4.807,0v-1.724h1.545l1.432,7.642a4.456,4.456,0,0,0,.338,8.729l.225,5.489a.891.891,0,0,0,.89.855h.037a.892.892,0,0,0,.855-.928l-.224-5.487A4.471,4.471,0,0,0,270.774,246c3.763,6.639,4,14.79,3.954,17.616a12.876,12.876,0,0,0-6.68.671l.862-2.346a.9.9,0,0,0,.054-.345l-.2-5.009a.892.892,0,0,0-1.783.073l.2,4.832-5.128,13.953h-1.789a4,4,0,0,1-3.876-4.921l1.168-4.953a4.238,4.238,0,0,0-.808-3.626l-.008-.01a4.327,4.327,0,0,0-1.219-8.478h-4.385V234.061a.892.892,0,0,0-.892-.892H229.953a.892.892,0,0,0-.892.892v3.185a.892.892,0,0,0,1.784,0v-1.86l8.914,3.628a.9.9,0,0,0,.672,0l8.914-3.628v18.067h-18.5V240.814a.892.892,0,0,0-1.784,0v12.731a4.328,4.328,0,0,0,0,8.469v6.469a11.376,11.376,0,0,0-3.435,7.85.892.892,0,0,0,.892.893h3.9a9.665,9.665,0,0,0,19.248,0h13.344a9.665,9.665,0,0,0,19.248,0h2.377a.892.892,0,0,0,.893-.892A12.916,12.916,0,0,0,276.506,264.035Zm-15-31.1a.62.62,0,1,1-1.239,0V228.4a.62.62,0,0,1,1.239,0Zm5.812,12.922a2.673,2.673,0,0,1,0-5.345h0a2.673,2.673,0,0,1,0,5.345Zm7.9.7h3.448v6.894h-3.213a32.991,32.991,0,0,0-2.115-6.338A3.439,3.439,0,0,1,275.223,246.558ZM240.1,237.224l-5.583-2.272h11.166Zm2.814,40a3,3,0,0,1-5.735,0ZM253.4,262.107a2.482,2.482,0,0,1,2.416,3.051l-1.169,4.953a5.755,5.755,0,0,0,1.1,4.92c.113.143.235.279.36.41h-2.335a13.005,13.005,0,0,0-12.957-12.1,16.92,16.92,0,0,0-9.963,3.547v-4.785ZM227.41,257.78a2.546,2.546,0,0,1,2.543-2.543h25.561a2.543,2.543,0,1,1,0,5.086H229.953A2.546,2.546,0,0,1,227.41,257.78Zm4.3,10.7a15.131,15.131,0,0,1,9.093-3.347,11.219,11.219,0,0,1,11.169,10.312H227.46A10.633,10.633,0,0,1,231.715,268.476Zm8.326,15.74a7.893,7.893,0,0,1-7.831-6.99h3.129a4.786,4.786,0,0,0,9.4,0h3.128A7.893,7.893,0,0,1,240.041,284.216Zm32.592,0a7.894,7.894,0,0,1-7.831-6.991h3.129a4.786,4.786,0,0,0,9.4,0h3.128A7.893,7.893,0,0,1,272.633,284.216Zm-2.868-6.991H275.5a3,3,0,0,1-5.736,0Zm-5.818-1.784,3.228-8.783a11.109,11.109,0,0,1,16.532,8.783Z" stroke="rgba(0,0,0,0)" stroke-width="1" fill="url(#a)"/><path d="M243.97,251.634a.893.893,0,0,0,.892-.892v-5.248l.861.861a.892.892,0,0,0,1.261-1.262L244.6,242.71a.891.891,0,0,0-1.262,0l-2.384,2.383a.892.892,0,0,0,1.262,1.262l.861-.861v5.248A.892.892,0,0,0,243.97,251.634Z" stroke="rgba(0,0,0,0)" stroke-width="1" fill="url(#a)"/><path d="M236.22,251.634a.893.893,0,0,0,.893-.892v-5.248l.86.861a.892.892,0,0,0,1.262-1.262l-2.384-2.383a.89.89,0,0,0-1.261,0l-2.384,2.383a.892.892,0,0,0,1.261,1.262l.861-.861v5.248A.893.893,0,0,0,236.22,251.634Z" stroke="rgba(0,0,0,0)" stroke-width="1" fill="url(#a)"/></g></svg>