<svg xmlns="http://www.w3.org/2000/svg" xmlns:xlink="http://www.w3.org/1999/xlink" width="61" height="61" viewBox="0 0 61 61"><defs><style>.a{stroke:rgba(0,0,0,0);fill:url(#a);}</style><linearGradient id="a" x1="0.821" y1="0.901" x2="0.199" y2="0.122" gradientUnits="objectBoundingBox"><stop offset="0" stop-color="#f17c23"/><stop offset="1" stop-color="#fad821"/></linearGradient></defs><g transform="translate(-225.5 -225.5)"><path class="a" d="M-988.764-933.355a1.136,1.136,0,0,1-.067-.122,1.006,1.006,0,0,1-.1-.184.926.926,0,0,1-.042-.205A1.161,1.161,0,0,1-989-934v-36a3,3,0,0,1,3-3h1v-7.637c-.1.089-.2.171-.291.266a1,1,0,0,1-.975.286,1,1,0,0,1-.723-.716,1,1,0,0,1,.278-.978,11.013,11.013,0,0,1,1.71-1.409V-986a3,3,0,0,1,3-3h50a3,3,0,0,1,3,3v35a3.005,3.005,0,0,1-3,3h-18v4h4a3,3,0,0,1,3,3v2a1,1,0,0,1-1,1h-25v4a.874.874,0,0,1-.027.135.7.7,0,0,1-.141.389.993.993,0,0,1-.068.122A13.486,13.486,0,0,1-979-929,13.491,13.491,0,0,1-988.764-933.355ZM-987-934.4a11.635,11.635,0,0,0,8,3.4,11.553,11.553,0,0,0,8-3.4v-.04A21.868,21.868,0,0,1-979-933a21.871,21.871,0,0,1-8-1.435Zm16-2.217V-970a1,1,0,0,0-1-1h-14a1,1,0,0,0-1,1v33.386A19.292,19.292,0,0,0-979-935,19.289,19.289,0,0,0-971-936.614Zm2-3.386h24v-1a1,1,0,0,0-1-1h-23Zm7-4h10v-4h-10Zm-7,0h5v-4h-5Zm0-6h37a1,1,0,0,0,1-1v-2h-19a1,1,0,0,1-1-1,1,1,0,0,1,1-1h19v-28h-21a1,1,0,0,1-1-1,1,1,0,0,1,1-1h21v-1a1,1,0,0,0-1-1h-50a1,1,0,0,0-1,1v1.768a10.827,10.827,0,0,1,11.71,2.453,1,1,0,0,1,.278.978,1,1,0,0,1-.724.716,1,1,0,0,1-.975-.286A8.827,8.827,0,0,0-983-982.039v2.32a6.891,6.891,0,0,1,8.91.768,1,1,0,0,1,.266.973,1,1,0,0,1-.716.71,1,1,0,0,1-.97-.276A4.9,4.9,0,0,0-979-979a4.9,4.9,0,0,0-3.49,1.458.973.973,0,0,1-.509.258V-973h11a3,3,0,0,1,3,3v15h5a1,1,0,0,1,1,1c0,.552.5.75-1,1a31.679,31.679,0,0,1-5,0Zm-6.71,5.711a1.166,1.166,0,0,1-.211-.33A1,1,0,0,1-976-945a.987.987,0,0,1,.365-.778.991.991,0,0,1,.835-.2.633.633,0,0,1,.18.06.749.749,0,0,1,.18.09,1.6,1.6,0,0,1,.15.12,1.059,1.059,0,0,1,.29.71.981.981,0,0,1-.08.38,1.185,1.185,0,0,1-.21.33l-.15.12a.717.717,0,0,1-.18.09.635.635,0,0,1-.18.06,1.491,1.491,0,0,1-.2.02A1.053,1.053,0,0,1-975.71-944.29Zm-4,0a1.185,1.185,0,0,1-.21-.33A.981.981,0,0,1-980-945a.991.991,0,0,1,.365-.778.991.991,0,0,1,.834-.2.633.633,0,0,1,.18.06.733.733,0,0,1,.18.09,1.611,1.611,0,0,1,.15.12,1.055,1.055,0,0,1,.29.71,1,1,0,0,1-.08.38,1.143,1.143,0,0,1-.21.33l-.15.12a.7.7,0,0,1-.18.09.635.635,0,0,1-.18.06,1.478,1.478,0,0,1-.2.02A1.056,1.056,0,0,1-979.71-944.29Zm-4,0a1.145,1.145,0,0,1-.21-.33A1,1,0,0,1-984-945a.99.99,0,0,1,.364-.778.992.992,0,0,1,.835-.2.624.624,0,0,1,.18.06.751.751,0,0,1,.18.09,1.731,1.731,0,0,1,.15.12,1.054,1.054,0,0,1,.29.71,1,1,0,0,1-.08.38,1.185,1.185,0,0,1-.21.33l-.15.12a.719.719,0,0,1-.18.09.635.635,0,0,1-.18.06,1.491,1.491,0,0,1-.2.02A1.053,1.053,0,0,1-983.71-944.29Zm8-4a1.161,1.161,0,0,1-.211-.329A1,1,0,0,1-976-949a.989.989,0,0,1,.365-.779.994.994,0,0,1,.835-.2.633.633,0,0,1,.18.059.785.785,0,0,1,.18.09,1.754,1.754,0,0,1,.15.121,1.057,1.057,0,0,1,.29.71.988.988,0,0,1-.08.38,1.18,1.18,0,0,1-.21.329l-.15.121a.782.782,0,0,1-.18.09.632.632,0,0,1-.18.059,1.493,1.493,0,0,1-.2.021A1.054,1.054,0,0,1-975.71-948.29Zm-4,0a1.18,1.18,0,0,1-.21-.329A.988.988,0,0,1-980-949a.992.992,0,0,1,.365-.779.993.993,0,0,1,.834-.2.633.633,0,0,1,.18.059.767.767,0,0,1,.18.09,1.764,1.764,0,0,1,.15.121,1.053,1.053,0,0,1,.29.71,1,1,0,0,1-.08.38,1.139,1.139,0,0,1-.21.329l-.15.121a.764.764,0,0,1-.18.09.632.632,0,0,1-.18.059,1.479,1.479,0,0,1-.2.021A1.057,1.057,0,0,1-979.71-948.29Zm-4,0a1.14,1.14,0,0,1-.21-.329A1,1,0,0,1-984-949a.992.992,0,0,1,.364-.779,1,1,0,0,1,.835-.2.625.625,0,0,1,.18.059.787.787,0,0,1,.18.09,1.908,1.908,0,0,1,.15.121,1.052,1.052,0,0,1,.29.71,1,1,0,0,1-.08.38,1.18,1.18,0,0,1-.21.329l-.15.121a.784.784,0,0,1-.18.09.631.631,0,0,1-.18.059,1.493,1.493,0,0,1-.2.021A1.054,1.054,0,0,1-983.71-948.29ZM-960-953a1,1,0,0,1-1-1,1,1,0,0,1,1-1h6a1,1,0,0,1,1,1,1,1,0,0,1-1,1Zm-25-6a6,6,0,0,1,6-6,6,6,0,0,1,6,6,6,6,0,0,1-6,6A6.007,6.007,0,0,1-985-959Zm2,0a4,4,0,0,0,4,4,4,4,0,0,0,4-4,4,4,0,0,0-4-4A4,4,0,0,0-983-959Zm3.289-8.29a1.179,1.179,0,0,1-.21-.329A.989.989,0,0,1-980-968a.992.992,0,0,1,.365-.778.993.993,0,0,1,.834-.2.632.632,0,0,1,.18.059.764.764,0,0,1,.18.09,1.6,1.6,0,0,1,.15.121A1.052,1.052,0,0,1-978-968a1,1,0,0,1-.08.381,1.163,1.163,0,0,1-.21.329l-.15.121a.764.764,0,0,1-.18.09.632.632,0,0,1-.18.059,1.469,1.469,0,0,1-.2.021A1.053,1.053,0,0,1-979.71-967.29Zm-1.384-7.427a1,1,0,0,1-.015-1.406,3.037,3.037,0,0,1,4.22,0,1,1,0,0,1-.025,1.4,1,1,0,0,1-1.4.012.988.988,0,0,0-1.379,0,1,1,0,0,1-.7.288A1,1,0,0,1-981.095-974.717ZM-958-983a1,1,0,0,1-1-1,1,1,0,0,1,1-1h2a1,1,0,0,1,1,1,1,1,0,0,1-1,1Zm-9,0a1,1,0,0,1-1-1,1,1,0,0,1,1-1h5a1,1,0,0,1,1,1,1,1,0,0,1-1,1Z" transform="translate(1215 1215)"/></g></svg>