<svg xmlns="http://www.w3.org/2000/svg" xmlns:xlink="http://www.w3.org/1999/xlink" width="61" height="52.657" viewBox="0 0 61 52.657"><defs><style>.a{stroke:rgba(0,0,0,0);fill:url(#a);}</style><linearGradient id="a" x1="0.821" y1="0.901" x2="0.199" y2="0.122" gradientUnits="objectBoundingBox"><stop offset="0" stop-color="#6a11cb"/><stop offset="1" stop-color="#2575fc"/></linearGradient></defs><g transform="translate(0.5 0.5)"><ellipse class="a" cx="0.957" cy="0.957" rx="0.957" ry="0.957" transform="translate(4.685 12.906)"/><ellipse class="a" cx="0.957" cy="0.957" rx="0.957" ry="0.957" transform="translate(4.685 7.49)"/><path class="a" d="M208.009,229.737a12.448,12.448,0,0,1,17.554-17.558l.257-.252a.957.957,0,0,1,1.344,1.364l-.251.247a12.353,12.353,0,0,1,2.972,8.071q0,.579-.053,1.147l26.571,29.7a.957.957,0,0,1-.036,1.315l-2.708,2.708.544.545a5.2,5.2,0,0,0,7.353-7.353l-17.983-17.984a7.114,7.114,0,0,1,10.061-10.061L264.713,232.7l-1.354,1.354L252.28,222.977a5.2,5.2,0,1,0-7.353,7.353l17.983,17.984a7.114,7.114,0,0,1-10.061,10.061l-.544-.545-2.709,2.708a.956.956,0,0,1-1.315.037l-25.468-22.787L218.584,234q-.568.053-1.146.053a12.357,12.357,0,0,1-8.071-2.971l-.251.253a.957.957,0,0,1-1.357-1.351l.25-.251Zm40.874,28.807,2.744-2.744,2.745-2.745-21.188-23.681a17.607,17.607,0,0,1-7.982,7.982l23.681,21.188Zm-25.235-22.579a15.668,15.668,0,0,0,8.145-8.146l-2.41-2.693a12.489,12.489,0,0,1-8.429,8.429Zm-6.21-3.823a10.533,10.533,0,0,0,8.107-17.256l-2.019,1.989a.957.957,0,1,1-1.344-1.364l2.011-1.981a10.531,10.531,0,0,0-14.827,14.843l10.1-10.147a.957.957,0,0,1,1.357,1.351l-10.1,10.147a10.455,10.455,0,0,0,6.715,2.418Z" transform="translate(-204.99 -209.162)"/></g></svg>