<svg xmlns="http://www.w3.org/2000/svg" width="289.872" height="289.872" viewBox="0 0 289.872 289.872"><defs><style>.a,.b,.c,.d{fill:none;stroke:#b4eefb;}.a,.b{stroke-miterlimit:10;}.a,.c{stroke-width:2.799px;}.b{stroke-width:1.199px;}.d{stroke-linecap:round;stroke-linejoin:round;stroke-width:2px;}.e{fill:#b4eefb;}</style></defs><g transform="translate(-893.256 -256.288)"><g transform="translate(895.235 258.267)"><circle class="a" cx="101.086" cy="101.086" r="101.086" transform="translate(0 142.957) rotate(-45)"/><circle class="a" cx="22.525" cy="22.525" r="22.525" transform="translate(117.097 124.355) rotate(-9.271)"/><g transform="translate(44.406 41.871)"><line class="b" y2="101.086" transform="translate(98.551 101.086)"/><line class="b" x2="43.859" y2="91.075" transform="translate(98.551 101.086)"/><line class="b" x2="79.032" y2="63.026" transform="translate(98.551 101.086)"/><line class="b" x2="98.551" y2="22.494" transform="translate(98.551 101.086)"/><line class="b" y1="22.494" x2="98.551" transform="translate(98.551 78.592)"/><line class="b" y1="63.026" x2="79.032" transform="translate(98.551 38.06)"/><line class="b" y1="91.075" x2="43.859" transform="translate(98.551 10.011)"/><line class="b" y1="101.086" transform="translate(98.551)"/><line class="b" x1="43.859" y1="91.075" transform="translate(54.692 10.011)"/><line class="b" x1="79.032" y1="63.026" transform="translate(19.519 38.06)"/><line class="b" x1="98.551" y1="22.494" transform="translate(0 78.592)"/><line class="b" x1="98.551" y2="22.494" transform="translate(0 101.086)"/><line class="b" x1="79.032" y2="63.026" transform="translate(19.519 101.086)"/><line class="b" x1="43.859" y2="91.075" transform="translate(54.692 101.086)"/></g><g transform="translate(43.097 45.58)"><path class="b" d="M1129.942,392.646l-15.214,19.328,5.342,24.013-22.116,10.78-5.607,23.955-24.6.155L1052.3,490.023l-22.221-10.573-22.221,10.573-15.446-19.147-24.6-.156-5.606-23.955-22.116-10.78,5.342-24.012-15.213-19.328,15.213-19.327-5.342-24.013,22.116-10.78,5.607-23.955,24.6-.155,15.446-19.147,22.221,10.573,22.221-10.573,15.446,19.147,24.6.156,5.606,23.955,22.116,10.78-5.342,24.012Z" transform="translate(-930.222 -295.269)"/></g><path class="c" d="M86.327,0A86.327,86.327,0,1,1,0,86.327,86.327,86.327,0,0,1,86.327,0Z" transform="translate(20.873 142.957) rotate(-45)"/></g><g transform="translate(923.633 284.697)"><path class="d" d="M1008.617,294.563l-4.284-7.42,4.284-7.42h8.568l4.284,7.42-4.284,7.42Z" transform="translate(-898.341 -279.723)"/><path class="d" d="M973.671,304.669l-7.079-4.826.64-8.544,7.719-3.717,7.079,4.826-.64,8.544Z" transform="translate(-907.091 -277.901)"/><path class="d" d="M946.764,328.571l-8.472-1.277-3.13-7.975,5.342-6.7,8.472,1.277,3.13,7.975Z" transform="translate(-914.377 -272.097)"/><path class="d" d="M932.758,362.009l-8.187,2.525-6.281-5.828,1.907-8.353,8.187-2.525,6.281,5.827Z" transform="translate(-918.288 -263.935)"/><path class="d" d="M934.664,398.125l-6.281,5.827-8.187-2.526-1.906-8.353,6.281-5.827,8.187,2.526Z" transform="translate(-918.288 -254.796)"/><path class="d" d="M952.1,429.767l-3.13,7.975-8.472,1.277-5.341-6.7,3.13-7.975,8.472-1.277Z" transform="translate(-914.377 -246.492)"/><path class="d" d="M981.388,450.9l.64,8.544-7.079,4.826-7.719-3.718-.64-8.544,7.079-4.826Z" transform="translate(-907.091 -240.901)"/><path class="d" d="M1017.182,456.87l4.283,7.42-4.284,7.42h-8.568l-4.283-7.42,4.284-7.42Z" transform="translate(-898.342 -238.656)"/><path class="d" d="M1051.809,447.187l7.079,4.827-.64,8.544-7.719,3.717-7.079-4.827.641-8.544Z" transform="translate(-889.273 -240.901)"/><path class="d" d="M1079,423.073l8.472,1.277,3.13,7.975-5.342,6.7-8.472-1.277-3.13-7.975Z" transform="translate(-882.27 -246.491)"/><path class="d" d="M1092.9,389.778l8.187-2.525,6.28,5.828-1.907,8.353-8.187,2.525-6.28-5.828Z" transform="translate(-878.251 -254.795)"/><path class="d" d="M1091,353.661l6.281-5.827,8.187,2.526,1.906,8.353-6.281,5.827-8.187-2.526Z" transform="translate(-878.251 -263.933)"/><path class="d" d="M1073.664,321.877l3.131-7.975,8.472-1.276,5.341,6.7-3.13,7.975-8.472,1.276Z" transform="translate(-882.269 -272.096)"/><path class="d" d="M1044.1,300.954l-.64-8.544,7.079-4.826,7.719,3.718.64,8.544-7.079,4.826Z" transform="translate(-889.271 -277.901)"/><path class="d" d="M1008.623,294.563l-4.283-7.42,4.284-7.419h8.568l4.283,7.42-4.284,7.419Z" transform="translate(-898.34 -279.723)"/><path class="d" d="M973.676,304.667,966.6,299.84l.641-8.544,7.719-3.717,7.078,4.827-.641,8.544Z" transform="translate(-907.089 -277.902)"/><path class="d" d="M946.768,328.567l-8.472-1.278-3.129-7.976,5.342-6.7,8.472,1.278,3.13,7.976Z" transform="translate(-914.376 -272.098)"/><path class="d" d="M932.759,362l-8.187,2.525-6.28-5.828,1.907-8.353,8.187-2.525,6.28,5.828Z" transform="translate(-918.288 -263.936)"/><path class="d" d="M934.662,398.12l-6.281,5.827-8.187-2.526-1.906-8.353,6.281-5.827,8.187,2.526Z" transform="translate(-918.289 -254.798)"/><path class="d" d="M952.1,429.763l-3.131,7.975-8.472,1.276-5.341-6.7,3.131-7.975,8.472-1.276Z" transform="translate(-914.378 -246.493)"/></g><circle class="e" cx="17.861" cy="17.861" r="17.861" transform="translate(1020.331 383.362)"/></g></svg>