<svg xmlns="http://www.w3.org/2000/svg" width="1920.999" height="215.054" viewBox="0 0 1920.999 215.054"><defs><style>.a{fill:#d2f8ff;stroke:rgba(0,0,0,0);}</style></defs><path class="a" d="M1730,279.053H-190V211.431h69.3v-28.4h51.532V97.846h42.645v85.2H21.451V142.217h9.6v-9.824h60.9v9.824H100.1v39.935H118.76v-59.9h30.653v62.572h9.329V164.862h27.986v-34.61H228.04v47.93h43.977V80.952h22.658V67.641H411.951V84.95h17.327v98.518h23.991V159.5h22.658v23.966h23.989v-35.96h53.3v47.93h31.976V80.37h16V71.051h25.322V81.7h14.657v81.8h73.3V148.952h53.3V178.54H889.044V184.8h53.3V65h61.3v94.523h42.645v27.958h42.65V163.516h21.331V99.6h25.322V82.292h110.617V99.6H1270.2v71.89h21.325v21.3h26.649V142.2H1439.45v27.959h105.282V206.1h58.654V186.138h34.65V206.1h43.983V230.07H1730v48.983Z" transform="translate(190.5 -64.5)"/></svg>