<svg xmlns="http://www.w3.org/2000/svg" width="9.01" height="12.013" viewBox="0 0 9.01 12.013">
  <g id="enter" transform="translate(-64)">
    <g id="Group_322" data-name="Group 322" transform="translate(64)">
      <path id="Path_242" data-name="Path 242" d="M72.76,4.5h-.751v-1A3.5,3.5,0,0,0,65,3.5v1H64.25a.25.25,0,0,0-.25.25v6.257a1,1,0,0,0,1,1h7.008a1,1,0,0,0,1-1V4.755A.25.25,0,0,0,72.76,4.5ZM69.254,9.733a.25.25,0,0,1-.249.278H68a.25.25,0,0,1-.249-.278l.158-1.42a.99.99,0,0,1-.41-.805,1,1,0,1,1,2,0,.99.99,0,0,1-.41.805ZM70.507,4.5h-4v-1a2,2,0,0,1,4,0Z" transform="translate(-64)" fill="#0096db"/>
    </g>
  </g>
</svg>
