<svg xmlns="http://www.w3.org/2000/svg" xmlns:xlink="http://www.w3.org/1999/xlink" width="160" height="49.813" viewBox="0 0 160 49.813"><defs><style>.a{fill:none;}.b{fill:#b8c8d1;}.b,.e,.f,.g,.h{fill-rule:evenodd;}.c{clip-path:url(#a);}.d,.h{fill:#fefefe;}.e{fill:#93a8b2;}.f,.i{fill:#78909c;}.g{fill:#fff;}</style><clipPath id="a"><path class="a" d="M67.623,11.071A18.219,18.219,0,1,1,49.4,29.29,18.22,18.22,0,0,1,67.623,11.071Z" transform="translate(-49.403 -11.071)"/></clipPath></defs><g transform="translate(-38.599 0)"><path class="b" d="M67.623,11.071A18.219,18.219,0,1,1,49.4,29.29,18.22,18.22,0,0,1,67.623,11.071Z" transform="translate(-4.944 -5.212)"/><g transform="translate(44.459 5.859)"><g class="c"><g transform="translate(-7.256 0.979)"><path class="d" d="M112.931,28.21H102.374a1.161,1.161,0,0,1,0-2.321h10.557a1.161,1.161,0,1,1,0,2.321Z" transform="translate(-66.535 -19.026)"/><path class="d" d="M98.456,22.263H94.022a1.161,1.161,0,1,1,0-2.321h4.434a1.161,1.161,0,1,1,0,2.321Z" transform="translate(-62.603 -16.226)"/><path class="d" d="M50.755,27.823H37.185c-.824,0-1.492-.5-1.492-1.125s.668-1.125,1.492-1.125h13.57c.824,0,1.492.5,1.492,1.125S51.578,27.823,50.755,27.823Z" transform="translate(-35.693 -18.877)"/><path class="d" d="M68.055,21.741H63.6a1.011,1.011,0,0,1-1.012-1.011V20.5A1.012,1.012,0,0,1,63.6,19.491h4.458A1.012,1.012,0,0,1,69.066,20.5v.225A1.012,1.012,0,0,1,68.055,21.741Z" transform="translate(-48.352 -16.014)"/><path class="e" d="M80.095,33.967H78.644V38.6h-.659V36.356l-2.637,1.766v1.6h-.264V36.844H73.5v2.875a.791.791,0,0,1-.791-.791h0v-2.4L71,36.506V39.24H70.2v1.118H69.017V35.565h-.659v-.639h-2.11v5.751H64.4V35.245H62.029v.32h-.4v2.077h-.528V36.523H60.051v1.917H58.468v.619a.66.66,0,0,1-.659.659h0V35.406h-1.45v.959h-.719a.864.864,0,0,1-.864-.864h0V33.968H53.325V38.6h-.659V34.927L50.028,34.9V39.72h-.264V36.844H48.182V39.72h-.791V60.151H85.37V38.441H83.787v1.278h-.659V35.4H81.677v.959H80.094v-2.4Z" transform="translate(-41.2 -22.828)"/><path class="f" d="M41.5,62.58H81.911V41.874l-1.622.015v4.358h-.782v-5.5h-1.72V42.57a1.024,1.024,0,0,1-1.025,1.025H75.91V42.457h-1.72v5.116a.782.782,0,0,1-.782-.782h0v-.734H71.53V43.784H70.279V45.11h-.626V42.647h-.469v-.379H66.369V48.71H64.18V44.744h-2.5V45.5H60.9v2.829H59.488V47.005H58.55V43.762l-2.033.021v2.851a.938.938,0,0,1-.938.938h0V44.163H53.7v3.411h-.313V43.451a1.563,1.563,0,0,0-1.566-1.563h0a1.563,1.563,0,0,0-1.562,1.563h0v2.8h-.782V40.752h-1.72v2.842H45.882V42.457h-1.72v5.116H43.38V46.057H41.5V62.579Z" transform="translate(-38.428 -26.022)"/><path class="g" d="M105.244,59.924c.278-.213.2-.267.359-.494a3.236,3.236,0,0,1,.4-.478c.055-.055.092-.084.147-.134a3.34,3.34,0,0,1,.835-.626c.1-.058.065-.066.187-.016a.4.4,0,0,1,.182.118,1.7,1.7,0,0,0,.131.167,1.805,1.805,0,0,1,.138.161c.247.282.22.092.529.633.07.123.133.246.21.37a2.529,2.529,0,0,1,.206.374,2.124,2.124,0,0,1,.226.636c.016.146.008.145-.057.241s-.157.282-.252.329c-.275.134-.212.113-.225.337-.135,0-.243-.048-.379-.047a6.038,6.038,0,0,1-.827-.07c-.111,0-.72-.042-.829-.069-.287-.07-.3-.012-.579-.09a5.063,5.063,0,0,1-.6-.085,1.336,1.336,0,0,1,.243-.351c.046-.051.073-.124.139-.159.3-.154.137-.135.087-.28a.589.589,0,0,0-.088-.16l-.191-.306Zm-6.306-4.745c.056.1.1.058.153.116.019.021.019.042.052.07.05.043.039,0,.074.068a.56.56,0,0,0,.176-.03c.131-.066.111.029.225-.1-.033-.1-.083-.089-.053-.224l.1-.012c.057.093.033.119.02.23.068.043.068.023.151.027.067,0,.126.029.2.031.019-.021.016-.021.032-.04.035-.041.019-.015.046-.043.045-.046.024-.058.06-.116.021-.008.62-.008.747-.025.239-.031.472-.089.7-.11a6.379,6.379,0,0,1,1.392-.248l.22.341c.1.221-.048.559,0,.829a.327.327,0,0,0,.143.227,3.08,3.08,0,0,0,.4.376,3.968,3.968,0,0,0,.6.439l.179.121c.049.035.056.061.1.091s.079.043.123.071a2.892,2.892,0,0,0,.944.412c.087.022.233.042.282.1-.011.059-.059.088-.106.138l-.182.187a4.69,4.69,0,0,1-.352.35l-.777.648c-.248.22-.165.191-.187.594-.008.165.012.3,0,.469a.705.705,0,0,0-.152.1.574.574,0,0,0,.014.2c.025.087.027.086.092.122.018.095.033.185.059.274a.816.816,0,0,1,.045.2c0,.116-.079.077-.173.088a.439.439,0,0,1-.141-.005c-.057,0-.119,0-.176,0s-.106-.026-.159-.033l-.333-.035c-.119,0-.248.01-.367-.006-.152-.021-.335-.006-.491-.034a1.127,1.127,0,0,0-.162-.033l-1-.084c-.11.006-.221.015-.353.015-.053,0-.121-.007-.155-.006l-.531-.012a2.365,2.365,0,0,1-.319.007c-.11-.012-.246-.021-.35-.022l-2.252.016c-.05,0-.1-.025-.143-.031-.173-.024-.355-.012-.526-.023L95.065,60.6c-.112-.02-.228-.014-.342-.029a3.013,3.013,0,0,0-.357-.016c-.432,0-.375,0-.355-.118s-.065-.222.142-.23.338,0,.42-.247a4.691,4.691,0,0,1,.368-1.391,2.978,2.978,0,0,1,.322-.576.537.537,0,0,0,.212-.229,2.65,2.65,0,0,1,.21-.442,3.777,3.777,0,0,0,.18-.5c.2-.388.465-.723.686-1.09.077,0,.137.01.209.009.1,0,.091-.042.1-.137-.014-.059-.117-.087.01-.127l.025.166a1.361,1.361,0,0,0,.613.042c.029-.06.049-.159.077-.2.041-.068.079-.073.121-.178a2.413,2.413,0,0,0,.071-.51,3.869,3.869,0,0,1,.461.014c.052.019.017.021.073.039.111.035.164.012.2.173l.2.059c.087.025.044.087.2.088,0-.137.022-.3.139-.159-.032.145-.079.085-.109.175Zm-4.714-5.526a.353.353,0,0,1,.168-.008c.014.216.081.41.1.6a.673.673,0,0,1-.264-.591Zm4.946-2.059c.128-.024.081.015.192,0a1.707,1.707,0,0,1,.192-.031c-.016.076-.028.031-.071.115-.163.308.037.343.088.374-.012.265.134.494.041.652-.063.105-.243.089-.521.216-.113.051-.287.179-.325.167a.815.815,0,0,1-.158-.3c-.011-.163.144-.067.022-.338a.563.563,0,0,0-.207-.251c-.138-.1-.185-.116-.215-.216.074.006.011.019.2.056.116.023.085.029.164.087.23-.02.165-.172.327-.243.189-.084.214-.081.272-.292Zm-6.9,14.7h20.811c-.149-.064-.785-.039-1.015-.08-.433-.078-1.164-.06-1.286-.086s-.125-.011-.187-.094c-.234-.312-.459-.173-.816-.276a1.119,1.119,0,0,0-.412-.075.223.223,0,0,1,.019-.11c.061-.167-.014-.142-.088-.247.049-.212.26-.173.439-.176a.564.564,0,0,0,.115-.3.407.407,0,0,0-.028-.193l-.076-.136a3.292,3.292,0,0,1-.233-.295l-.33-.62a.525.525,0,0,1-.076-.136l-.252-.593a3.814,3.814,0,0,1-.256-1.01c-.043-.119-.115-.145-.135-.29a.919.919,0,0,0-.088-.333c-.169-.305-.458-.087-.62-.223a2.868,2.868,0,0,1-.979-1.115c-.026-.051-.153-.207-.142-.254a.908.908,0,0,1,.11-.2c.019-.031.026-.031.045-.062.088-.138.133-.4.243-.495a2.9,2.9,0,0,0,.431-.52,1.879,1.879,0,0,0,.3-.756,2.4,2.4,0,0,0,.015-.964c-.011-.054-.016-.126-.028-.182l-.029-.127c0-.074.052-.035.1,0a1.293,1.293,0,0,1,.418.445,2.933,2.933,0,0,1,.249.436,2.658,2.658,0,0,1,.187.5,1.423,1.423,0,0,1,.062.3c.046.515-.109.73.219,1.112.155.181.234.713.578.812a.33.33,0,0,0,.049.182c.055.1.07.229.117.324a.594.594,0,0,0,.051.6,1.96,1.96,0,0,0,.278.3,1.333,1.333,0,0,1,.239.324.75.75,0,0,0,.263.318c.208.121.24.219.328.257.077-.032.045-.043.088-.073s.022.014.1-.025c.023-.089.016-.086-.018-.146-.048-.084-.01-.052-.01-.147s-.019-.255-.023-.369c-.006-.164.043-.2-.013-.369-.071-.219.024-.464-.06-.662l-.114-.168c-.134-.166-.1.032-.233-.259l-.1-.28c.129-.11.2-.138.2-.339a4.012,4.012,0,0,0-.281-1.355c-.04-.121-.076-.315-.125-.422a1.685,1.685,0,0,1-.112-.435,4.071,4.071,0,0,0-.482-1.172l-.3-.372c-.1-.075-.187-.179-.3-.253l-.01-.007a1.749,1.749,0,0,0-1.249-.232,1.7,1.7,0,0,0-.418.13,1.161,1.161,0,0,1-.556-.016l-.02-.015-.3-.278c-.041-.056-.081-.085-.1-.155.119-.005.247-.007.366-.021.041,0,.333-.037.355-.034a.514.514,0,0,0,.307.03c.114-.018.2-.006.253-.095-.131-.1-.279-.023-.377-.126-.1,0-.131.027-.219.018l-.708-.205c-.124-.04-.1,0-.187-.01l-1.7-.391a6.316,6.316,0,0,1-.8-.24l-.053-.069c-.024-.043-.055-.1-.083-.148l-.068-.088-.008-.009a2.788,2.788,0,0,0-.433-.43,2.2,2.2,0,0,0-1.14-.4.586.586,0,0,0-.024-.2c-.039-.094-.051-.022-.042-.184a.313.313,0,0,0,.128-.152l.069-.212a1.859,1.859,0,0,0,.047-.234c.041-.292-.048-.279.256-.149.045.019.078.028.128.05s.075.043.114.063a1.337,1.337,0,0,0,.517.17c.1,0,.267.266.349.335a2.168,2.168,0,0,0,.81.246,1.06,1.06,0,0,1,.281.073c.746.27.716.029,1.226.079a1.973,1.973,0,0,0,.641.019c.033-.175.084-.286.114-.448s.022-.356.059-.521c.042-.192.1-.278.014-.465l-.032-.055a.79.79,0,0,0-.252-.239c-.108-.077-.209-.006-.508-.074a8.877,8.877,0,0,1-1.119-.325,1.841,1.841,0,0,1-.3-.133.943.943,0,0,0-.612-.411c-.323-.08-.07-.158-.58-.423-.028-.015-.07-.029-.107-.049a3.7,3.7,0,0,0-.722-.283,1.266,1.266,0,0,0-.141-.024c-.1-.017-.193-.222-.282-.291s-.085-.009-.152-.13c-.056-.1-.1-.073-.175-.132.014-.164.031-.15.112-.246.238-.282.483-.292.581-.493-.071-.082-.065-.032-.148-.088a.756.756,0,0,0-.129-.5c-.09-.113-.011-.118.049-.207a.7.7,0,0,1,.227-.3c.053-.038.066-.006.11-.067s0-.04.082-.094.125-.1.2-.155c.148.016.1.052.211-.047l0-.186c-.243-.206-.313.014-.459.2-.025.031-.025.039-.05.074a.216.216,0,0,1-.05.054c-.035.029-.044.022-.074.05s-.031.069-.1.13a1.6,1.6,0,0,0-.115.113c-.085.092-.068.02-.158.071-.149.085-.109.069-.257,0a.985.985,0,0,0-.1-.041c-.093-.035-.188-.015-.25-.048s-.112-.012-.215,0l-.2.051c-.1.033-.078.265-.166.367a1.07,1.07,0,0,0-.119.215.583.583,0,0,1-.074.1c-.068.1-.027.152-.033.275l-.18.2c-.083.089-.016.133-.014.238a.842.842,0,0,0,.016.177.368.368,0,0,0-.15.444c.289.1.255-.079.438-.055.081.011.035.01.059.033-.01.09-.029.053-.129.123a1.319,1.319,0,0,0-.136.124,2.2,2.2,0,0,0-.348.41c-.121.184-.153.116-.309.221-.11.074-.065.033-.126.137-.122.006-.155-.051-.277,0-.06.027-.054.041-.094.068-.231.153-.63-.13-.874-.175l-1.1-.2c-.136-.024-.107-.054-.255-.066-.094-.007-.171-.144-.27-.2-.059-.034-.053.005-.123-.053-.142-.119-.079-.128-.275-.2-.072-.029-.13-.1-.2-.131l-.363-.137s-.007.006-.008.015c-.01.073-.061.049-.072.133s.043.1.1.124.093.047.143.068c.077.032.076,0,.114.084-.107.02-.375-.043-.378.111.137.089.448-.026.571.117-.142.03-.445-.066-.4.1a1.386,1.386,0,0,0,.288.031c.151.006.15.01.235.08l.156.16c.106.087.129.048.255.08.17.043.022.128.151.165.025.007.041,0,.061.011.076.024.012.008.053.034s.013.01.068.023a2.006,2.006,0,0,1,.466.27c.185.1.181.073.286.19a.662.662,0,0,0,.219.094c.071,0,.02-.025.119.007s.17.051.257.078c.175.053.336.1.509.142a5.375,5.375,0,0,1,.562.092c-.017.069-.086.08-.138.113l-.01.007-.061.043c-.151.1-.409.06-.635.244-.191.156-.163.093-.318.176-.088.047-.089.038-.111.149-.263.058-.169.082-.356-.094-.043-.04-.024-.035-.059-.08s-.038-.055-.059-.083c-.056-.075-.1-.057-.165-.116-.262-.239-.07-.361-.346-.781-.105-.16-.318-.155-.555-.274-.119-.06-.079,0-.151-.129-.024-.046-.04-.047-.081-.058-.077-.022-.046.013-.095-.047-.241-.3-.165-.248-.58-.233-.275.01-.13-.053-.33-.179a1.875,1.875,0,0,0-.453-.113c-.081-.023-.155-.01-.218-.061-.09-.072-.061-.069-.177-.105s-.049-.061-.19-.089c-.082-.016-.138-.007-.23-.021a2.446,2.446,0,0,0-.748-.058l-.484.076a.614.614,0,0,0-.309.016c-.064.026,0,0-.042.026a.246.246,0,0,1-.106.03.926.926,0,0,0-.119.025c-.086.026-.185.192-.234.2-.068-.021-.119-.068-.192-.1a3.8,3.8,0,0,0-.678-.179c-.01.166.4.3.418.587a.443.443,0,0,1-.357-.017c-.061-.021-.125-.03-.182-.05s-.1-.051-.177-.026c-.032.115.163.222.213.4a1.018,1.018,0,0,0,.086.23.716.716,0,0,0,.068.09c.046.048.05.031.105.062a2.5,2.5,0,0,0,.131.563c.041.107.093.518.109.579a.182.182,0,0,0,.1.132c.085.047.075.014.119.108.183.028.151.182.364.394a3.032,3.032,0,0,1,.377.4,1.7,1.7,0,0,1,.076.17c.044.085.083.077.142.118.023.131-.051.166-.031.3.072.069.145.084.2.18.071.12.076.153.255.154.056.108.14.273.279.3a.437.437,0,0,1,.123.019c.049.023.024.039.089.056.111.029.16-.043.227-.071.074.073.157.343.279.476.049.053.084.062.136.119-.026.071-.013.15-.068.21-.026.029-.041.029-.062.077l-.1.183a.347.347,0,0,1-.053.088c-.024.032-.072.116-.107.173-.065.1,0,.148.029.2.02.039.019.073.036.105a1.125,1.125,0,0,1,.161.26c.015.043.017.078.04.1.044.048.049-.012.071.079a2.4,2.4,0,0,1-.538.1,2.7,2.7,0,0,1-.617-.05c-.094-.022-.171-.048-.247-.068-.1-.026-.161-.067-.251-.084a.345.345,0,0,0-.268.02,3.118,3.118,0,0,0-.359.293.5.5,0,0,0-.144.188c-.04.108.012.185.016.287.018.417-.165.322.235.72a1.8,1.8,0,0,1,.146.189,7.4,7.4,0,0,1,.508,1.144c.216.656.046.6.648.991a1.46,1.46,0,0,1,.194.14c.084.088.048.181.1.24.066.084.12-.01.224.076.237.193.673.416.943.229.007-.1-.086-.789-.11-.923-.031-.167.015-.138,0-.281a2.714,2.714,0,0,0-.726-.023.5.5,0,0,1-.11.021c-.116-.071-.206-.144-.123-.306l.084-.023c.02-.238.086.023-.023-.266-.028-.076-.038-.059-.086-.121-.191-.006-.306.016-.4-.183-.067-.137-.122-.274-.186-.413a2.28,2.28,0,0,1-.285-.913,1.292,1.292,0,0,1,.8.083c.123.045.23.065.358.119a1.626,1.626,0,0,0,.339.155c.291.054.193.19.5.446a4.354,4.354,0,0,1,.48.483c-.021.043-.038.088-.058.132s-.052.085-.074.137c-.038.091-.073.2-.11.313-.131.4.02.944-.194,1.495a.536.536,0,0,1-.145.276c-.1.081-.113.15-.126.3a.529.529,0,0,0-.157.137c-.058.088-.016.187-.046.255s-.09.106-.11.192c-.023.1.035.166,0,.27-.01.035-.03.066-.04.1s-.02.076-.033.125c-.023.083-.052.156-.074.228a6.558,6.558,0,0,1-.527,1.3,1.9,1.9,0,0,1-.22.376c-.352.351-.429.09-.626.255-.076.064-.072.222-.157.355s-.071.123-.245.133a3.2,3.2,0,0,0-.5.105,4.114,4.114,0,0,0-.527.088c-.405.14.2.384.005.719,1.249,1.426.674.251.7.768Z" transform="translate(-61.739 -26.633)"/><path class="h" d="M70.168,49.919l4.746-8.352-.369-.369,1.109-1.848-.93-.4v-.545h-.43V36.713l.554-.351v-.4l.554-.35h.044v-.44h.669V24.117h-.169a2.062,2.062,0,0,0-1.1-.528V21.856a5.723,5.723,0,0,1,1.859-.3V20.1h-.255v-.227H76.7V18.152h-.255v-.227H76.7V16.2h-.255v-.227H76.7V14.247h-.255v-.228H76.7V13.3l.342-.378v0l.342.378v.72h.255v.228h-.255v1.725h.255V16.2h-.255v1.725h.255v.227h-.255v1.726h.255V20.1h-.255v1.45l-.342,0v0a6.384,6.384,0,0,1,2.2.3v1.733a2.068,2.068,0,0,0-1.1.528h-.169V35.168h.669v.44h.043l.554.35v.4l.554.35V38.4h-.429v.545l-.93.4h0L79.546,41.2l-.369.37,4.746,8.351h-.517L78.285,42.7l-.609,7.221h-.63V39.348h0v10.57h-.631L75.806,42.7l-5.121,7.221h-.517Z" transform="translate(-51.921 -12.921)"/><path class="h" d="M59.868,44.72a2.578,2.578,0,0,1,.47,5.113V50.3h1.21v.417h.257l.026.565h.3l.42,7.9h-.057l1.269.927v.565h1.022V65.76H54.953V60.678h1.022v-.565l1.221-.927h-.009l.26-7.9h.33l.016-.565h.394V50.3H59.4v-.471a2.578,2.578,0,0,1,.47-5.113Z" transform="translate(-44.759 -27.89)"/></g></g></g><path class="a" d="M67.623,11.071A18.219,18.219,0,1,1,49.4,29.29,18.22,18.22,0,0,1,67.623,11.071Z" transform="translate(-4.944 -5.212)"/><path class="i" d="M150.021,130.164l2.745-6.9a4.657,4.657,0,0,1,1.029-1.748,2.173,2.173,0,0,1,1.481-.517,2.36,2.36,0,0,1,1.562.56,2.187,2.187,0,0,1,.826,1.721,4.922,4.922,0,0,1-.485,1.78l-7.147,17.049a7.437,7.437,0,0,1-.639,1.263,2.157,2.157,0,0,1-1.828.906,2.31,2.31,0,0,1-1.546-.575,2.128,2.128,0,0,1-.794-1.658,4.815,4.815,0,0,1,.485-1.764l1.849-4.322L142.912,125a4.931,4.931,0,0,1-.469-1.748,2.15,2.15,0,0,1,1.018-1.844,2.31,2.31,0,0,1,1.343-.4,2.148,2.148,0,0,1,1.455.5,4.725,4.725,0,0,1,1.012,1.716l2.751,6.944Z" transform="translate(40.935 -102.469)"/><path class="i" d="M129.453,122.023v9.033a4.772,4.772,0,0,1-.309,1.977,2.087,2.087,0,0,1-.837.842,2.346,2.346,0,0,1-1.189.33,2.294,2.294,0,0,1-1.188-.336,2.17,2.17,0,0,1-.837-.836,4.7,4.7,0,0,1-.309-1.977v-9.034a2.99,2.99,0,0,1-2.366-.7,2.125,2.125,0,0,1-.543-1.418,2.077,2.077,0,0,1,.7-1.588,3.3,3.3,0,0,1,2.211-.544v-2.409a4.6,4.6,0,0,1,.309-1.951,2.068,2.068,0,0,1,.826-.847,2.354,2.354,0,0,1,2.388,0,2.064,2.064,0,0,1,.837.847,4.6,4.6,0,0,1,.309,1.951v2.409h.874a4.251,4.251,0,0,1,1.775.283,1.8,1.8,0,0,1,.762.746,2.141,2.141,0,0,1,.3,1.088,2.214,2.214,0,0,1-.3,1.1,1.782,1.782,0,0,1-.762.751,4.241,4.241,0,0,1-1.775.283h-.874Z" transform="translate(49.047 -99.012)"/><path class="i" d="M111.164,134.519V124.147a4.731,4.731,0,0,1,.309-1.972,2.088,2.088,0,0,1,.826-.842,2.333,2.333,0,0,1,1.2-.33,2.392,2.392,0,0,1,1.2.33,1.992,1.992,0,0,1,.826.842,4.673,4.673,0,0,1,.309,1.972v10.372a4.672,4.672,0,0,1-.309,1.971,2.068,2.068,0,0,1-.826.837,2.307,2.307,0,0,1-2.387.005,2.076,2.076,0,0,1-.836-.842,4.665,4.665,0,0,1-.309-1.972Z" transform="translate(53.27 -102.469)"/><path class="i" d="M89.655,112.079a10.66,10.66,0,0,1,3.805.656q2.455.927,2.452,2.782a2.339,2.339,0,0,1-.469,1.455,1.794,1.794,0,0,1-1.508.7,5.553,5.553,0,0,1-1.8-.491,6.78,6.78,0,0,0-2.553-.533,4.812,4.812,0,0,0-3.539,1.327,7.245,7.245,0,0,0-1.838,5.372,6.779,6.779,0,0,0,1.812,5.18,5.049,5.049,0,0,0,3.587,1.327,4.845,4.845,0,0,0,1.972-.325l1.449-.64a2.829,2.829,0,0,1,1.109-.251,1.783,1.783,0,0,1,1.433.736,2.2,2.2,0,0,1,.534,1.487,2.7,2.7,0,0,1-1.513,2.377,9.51,9.51,0,0,1-4.989,1.22,10.2,10.2,0,0,1-7.355-2.75,11.09,11.09,0,0,1-3.283-8.389,13.2,13.2,0,0,1,.837-4.764,9.717,9.717,0,0,1,2.361-3.64A10.514,10.514,0,0,1,89.655,112.079Z" transform="translate(65.969 -98.95)"/><path class="i" d="M50.454,129.986l2.745-6.9a4.645,4.645,0,0,1,1.028-1.748,2.174,2.174,0,0,1,1.481-.517,2.36,2.36,0,0,1,1.562.56,2.187,2.187,0,0,1,.826,1.721,4.938,4.938,0,0,1-.485,1.78l-7.146,17.049a7.533,7.533,0,0,1-.64,1.264A2.159,2.159,0,0,1,48,144.1a2.305,2.305,0,0,1-1.545-.576,2.126,2.126,0,0,1-.795-1.657,4.833,4.833,0,0,1,.485-1.764l1.849-4.322-4.647-10.963a4.944,4.944,0,0,1-.469-1.748,2.151,2.151,0,0,1,1.018-1.844,2.306,2.306,0,0,1,1.343-.4,2.148,2.148,0,0,1,1.455.5,4.739,4.739,0,0,1,1.013,1.716l2.75,6.944Z" transform="translate(80.201 -102.399)"/><path class="i" d="M6.566,121.257,4.973,131.309a4.882,4.882,0,0,1-.645,1.972,2.182,2.182,0,0,1-1.9.906,2.416,2.416,0,0,1-1.551-.549,2.321,2.321,0,0,1-.874-1.9,8.609,8.609,0,0,1,.139-1.2L2.67,115.016a3.246,3.246,0,0,1,.954-1.972,3.442,3.442,0,0,1,2.329-.826,3.278,3.278,0,0,1,2,.624A2.835,2.835,0,0,1,9,114.313l3.6,10.974,3.293-10.495a3.7,3.7,0,0,1,1.327-1.934,3.152,3.152,0,0,1,1.909-.608,3.362,3.362,0,0,1,2.185.778,2.917,2.917,0,0,1,1.034,1.764l2.735,15.7a8.448,8.448,0,0,1,.154,1.263,2.336,2.336,0,0,1-.858,1.876,2.479,2.479,0,0,1-1.578.56,2.253,2.253,0,0,1-1.923-.906,4.559,4.559,0,0,1-.656-1.972l-1.642-10.052-3.017,10.036c-.229.741-.405,1.247-.528,1.524a2.4,2.4,0,0,1-.469.7,2.6,2.6,0,0,1-1.876.672,2.608,2.608,0,0,1-1.716-.564,3.51,3.51,0,0,1-1.018-1.748L6.566,121.257Z" transform="translate(97.11 -99.004)"/><path class="f" d="M112.425,101.4a4.1,4.1,0,0,1,2.9,7.006l-2.9,2.9-2.9-2.9a4.1,4.1,0,0,1,2.9-7.006Zm0,2.419a1.743,1.743,0,1,1-1.743,1.743A1.743,1.743,0,0,1,112.425,103.82Z" transform="translate(54.392 -94.738)"/><path class="f" d="M45.384,7.052a24.079,24.079,0,1,1,0,34.052A24.079,24.079,0,0,1,45.384,7.052Zm2.523,2.522A20.511,20.511,0,0,0,76.913,38.583l0,0A20.511,20.511,0,0,0,47.907,9.575Z" transform="translate(0.268 0)"/><path class="i" d="M118.234,82.247l-6.708-6.708a4.339,4.339,0,0,1-1.076-1.475,1.909,1.909,0,0,1-.011-1.079,2.141,2.141,0,0,1,.562-.989,2.187,2.187,0,0,1,.99-.562,1.814,1.814,0,0,1,1.079.011,4.275,4.275,0,0,1,1.475,1.075l6.709,6.708a4.28,4.28,0,0,1,1.075,1.475,1.9,1.9,0,0,1,.007,1.075,2.112,2.112,0,0,1-1.541,1.548,1.907,1.907,0,0,1-1.086,0,4.275,4.275,0,0,1-1.475-1.075Z" transform="translate(-33.641 -33.591)"/></g></svg>