<svg xmlns="http://www.w3.org/2000/svg" width="10.154" height="13.036" viewBox="0 0 10.154 13.036">
  <g id="register" transform="translate(-1222.254 -43.464)">
    <g id="Group_326" data-name="Group 326" transform="translate(1180.858 43.964)">
      <path id="Path_247" data-name="Path 247" d="M106.958,5.886a2.721,2.721,0,0,0,2.423-2.943c0-1.625-.356-2.943-2.423-2.943s-2.423,1.318-2.423,2.943A2.721,2.721,0,0,0,106.958,5.886Z" transform="translate(-60.486)" fill="#0096db" stroke="rgba(0,0,0,0)" stroke-width="1"/>
      <path id="Path_248" data-name="Path 248" d="M41.9,300.423c0-.1,0-.028,0,0Z" transform="translate(0 -290.043)" fill="#0096db" stroke="rgba(0,0,0,0)" stroke-width="1"/>
      <path id="Path_249" data-name="Path 249" d="M308.085,301.576c0-.027,0-.188,0,0Z" transform="translate(-257.036 -291.119)" fill="#0096db" stroke="rgba(0,0,0,0)" stroke-width="1"/>
      <path id="Path_250" data-name="Path 250" d="M51.056,181.889c-.045-2.832-.415-3.638-3.245-4.149a1.988,1.988,0,0,1-2.654,0c-2.8.505-3.191,1.3-3.243,4.057,0,.225-.006.237-.007.211,0,.049,0,.14,0,.3,0,0,.674,1.358,4.576,1.358s4.576-1.358,4.576-1.358c0-.1,0-.172,0-.22A1.824,1.824,0,0,1,51.056,181.889Z" transform="translate(-0.012 -171.628)" fill="#0096db" stroke="rgba(0,0,0,0)" stroke-width="1"/>
    </g>
  </g>
</svg>
