<svg xmlns="http://www.w3.org/2000/svg" xmlns:xlink="http://www.w3.org/1999/xlink" width="54.999" height="55.003" viewBox="0 0 54.999 55.003"><defs><style>.a{fill:url(#a);}</style><linearGradient id="a" x1="0.821" y1="0.901" x2="0.199" y2="0.122" gradientUnits="objectBoundingBox"><stop offset="0" stop-color="#f17c23"/><stop offset="1" stop-color="#fad821"/></linearGradient></defs><g transform="translate(0 0)"><path class="a" d="M274.257,234.228l-.707.706-1.919-1.918a5.683,5.683,0,0,0-8.031,0l-1,1a5.242,5.242,0,0,0-6.321,8.248l6.133,6.133-14.375,14.375-6.133-6.133a5.241,5.241,0,0,0-8.247,6.322l-1,1a5.687,5.687,0,0,0,0,8.032l1.919,1.918-.707.708a4,4,0,0,0,0,5.654l3.2,3.2a4,4,0,0,0,5.654,0l.708-.707,1.93,1.93a5.686,5.686,0,0,0,8.032,0l1-1a5.24,5.24,0,0,0,6.32-8.247l-6.133-6.133,12.32-12.321a.954.954,0,0,0-1.349-1.349l-12.32,12.321-3.85-3.85,14.371-14.372,11.333,11.332a5.242,5.242,0,0,0,8.248-6.322l1-1a5.687,5.687,0,0,0,0-8.032l-1.931-1.931.707-.706a4,4,0,0,0,0-5.658l-3.2-3.2A4,4,0,0,0,274.257,234.228Zm-32.177,47.194-.706.707a2.093,2.093,0,0,1-2.957,0l-3.2-3.2a2.093,2.093,0,0,1,0-2.956l.708-.706Zm17.285-4.62a3.334,3.334,0,1,1-4.629,4.8c-.029-.028-.058-.056-.085-.086l-13.608-13.608a.954.954,0,0,0-1.35,1.349l13.223,13.223-.874.874a3.776,3.776,0,0,1-5.334,0L234,270.644a3.776,3.776,0,0,1,0-5.334l.874-.874,1.832,1.832a.954.954,0,1,0,1.352-1.346l0,0-2.217-2.218a3.334,3.334,0,1,1,4.629-4.8c.029.028.058.056.085.086L259.364,276.8Zm21.784-21.784a3.334,3.334,0,0,1-4.629,4.8l-.086-.085L257.62,240.918a3.334,3.334,0,0,1,4.63-4.8q.042.041.085.085Zm1.838-7.943a3.777,3.777,0,0,1,0,5.334l-.874.874L264.07,235.241l.874-.875a3.777,3.777,0,0,1,5.334,0Zm-1.228-8.288a2.093,2.093,0,0,1,0,2.957l-.706.706-6.16-6.16.706-.706a2.093,2.093,0,0,1,2.956,0Z" transform="translate(-230.996 -231.355)"/></g></svg>