<svg xmlns="http://www.w3.org/2000/svg" xmlns:xlink="http://www.w3.org/1999/xlink" width="48.517" height="61.017" viewBox="0 0 48.517 61.017"><defs><style>.a{stroke:rgba(0,0,0,0);fill:url(#a);}</style><linearGradient id="a" x1="0.821" y1="0.901" x2="0.199" y2="0.122" gradientUnits="objectBoundingBox"><stop offset="0" stop-color="#49b825"/><stop offset="1" stop-color="#8ddc15"/></linearGradient></defs><g transform="translate(-231.48 -225.483)"><path class="a" d="M-791.212-929a6.013,6.013,0,0,1-6.009-5.711l-1.8-25.538a1.83,1.83,0,0,1,.265-1.039,5.377,5.377,0,0,1,.255-3.892c.942-1.776,2.961-2.561,4.635-3.044a3.665,3.665,0,0,0-2.579-1.416c-.033,0-.067,0-.1,0a1.056,1.056,0,0,1-1.055-1.023,1.057,1.057,0,0,1,1.023-1.089,5.612,5.612,0,0,1,4.207,2.031,4.1,4.1,0,0,1-.345-1.652,4.15,4.15,0,0,1,.923-2.616,5.3,5.3,0,0,1-.357-1.908,5.281,5.281,0,0,1,3.959-5.122,4.753,4.753,0,0,1,3.495-4.53,3.89,3.89,0,0,1,3.781-3,3.835,3.835,0,0,1,1.867.486,3.6,3.6,0,0,1,2.245-.461,3.644,3.644,0,0,1,3.019,2.576,3.21,3.21,0,0,1,.08.328,5.033,5.033,0,0,1,3.915,3.893,6.114,6.114,0,0,1,3.346,4.236c.1-.215.2-.431.308-.653,1.812-3.847,4.068-8.634,7.222-10.261a4.325,4.325,0,0,1,4.508.049,7.1,7.1,0,0,1,2.9,5.908,74.331,74.331,0,0,1-3.414,19.86,1.38,1.38,0,0,1,.6.224,1.368,1.368,0,0,1,.6,1.219l0,.019-1.841,26.427A6.01,6.01,0,0,1-761.572-929Zm-3.9-5.839a3.91,3.91,0,0,0,3.9,3.726h29.641a3.9,3.9,0,0,0,3.9-3.706l1.759-25.241-.162.072a1.087,1.087,0,0,1-.117.083l-2.072.921a5.454,5.454,0,0,1-2.748.743c-.016,0-.033,0-.049,0a5.453,5.453,0,0,1-2.828-.775l-.753-.452a3.34,3.34,0,0,0-1.686-.473,3.334,3.334,0,0,0-1.684.473l-.753.452a5.347,5.347,0,0,1-1.354.556c-.084.025-.167.043-.25.063-.172.039-.342.083-.517.105a5.362,5.362,0,0,1-.923.044c-.018,0-.037,0-.055,0a5.455,5.455,0,0,1-2.582-.764l-.753-.452a3.329,3.329,0,0,0-1.685-.472,3.319,3.319,0,0,0-1.685.472l-.753.452a.987.987,0,0,1-.184.058,5.426,5.426,0,0,1-2.082.68c-.012,0-.023.007-.033.009-.1.008-.193.008-.287.013a5.436,5.436,0,0,1-3.1-.759l-.752-.452a3.326,3.326,0,0,0-1.685-.472,3.324,3.324,0,0,0-1.685.472l-.365.221a6.2,6.2,0,0,1-3.229.885,6.209,6.209,0,0,1-3.229-.885l-.919-.553Zm31.631-26.443.752.452a3.336,3.336,0,0,0,1.685.473,3.339,3.339,0,0,0,1.686-.473,1.067,1.067,0,0,1,.114-.06l1.8-.8c.218-.612.369-1.057.437-1.278a72.326,72.326,0,0,0,3.391-19.527,5.1,5.1,0,0,0-1.909-4.067,2.3,2.3,0,0,0-2.419.04c-2.516,1.3-4.692,5.914-6.279,9.284-.481,1.025-.938,1.993-1.357,2.773a70.624,70.624,0,0,0-3.055,6.513c-.135.331-.263.669-.393,1q-.44,1.125-.85,2.266c-.128.364-.257.726-.381,1.092q-.487,1.442-.925,2.913c-.027.091-.059.181-.085.274a3.331,3.331,0,0,0,1.353-.427l.751-.452a5.44,5.44,0,0,1,2.843-.777l.036,0A5.454,5.454,0,0,1-763.48-961.282Zm-21.121,0,.753.452a3.285,3.285,0,0,0,1.143.409c.056.008.111.016.167.023a8.021,8.021,0,0,0-.7-5.162q-.255-.45-.507-.847c-.05-.08-.1-.149-.153-.228-.116-.178-.232-.356-.347-.516-.064-.09-.128-.167-.193-.251-.1-.133-.2-.27-.3-.391-.074-.087-.147-.163-.22-.244-.09-.1-.179-.205-.268-.3s-.161-.148-.241-.22-.161-.151-.241-.215-.172-.125-.257-.185-.144-.105-.216-.148c-.093-.055-.184-.1-.274-.14-.065-.029-.128-.066-.191-.091a2.488,2.488,0,0,0-.294-.088c-.053-.013-.1-.031-.157-.041a2.133,2.133,0,0,0-.612-.018l-.044,0A4.707,4.707,0,0,0-790-968.322c-.272.221-.554.464-.855.752a5.684,5.684,0,0,1-2.361,1.355c-1.883.539-2.967,1.181-3.415,2.022a3.039,3.039,0,0,0-.178,2.049,1.81,1.81,0,0,1,.6.224h0l1.42.854a4.075,4.075,0,0,0,2.071.582,4.089,4.089,0,0,0,2.07-.582l.365-.22a5.441,5.441,0,0,1,2.843-.778l.036,0A5.439,5.439,0,0,1-784.6-961.283Zm10.563,0,.7.42q.413-1.434.882-2.843c.065-.2.138-.4.206-.593.093-.277.19-.551.287-.827a13.134,13.134,0,0,0-1.464.911,8.164,8.164,0,0,1-5.028,1.761c-.283,0-.587-.026-.891-.051l.2.924a5.418,5.418,0,0,1,1.683-.447c.08-.007.161-.01.242-.015.11-.006.221-.019.333-.017l.039,0A5.442,5.442,0,0,1-774.038-961.279Zm-4.225-13.062a2.259,2.259,0,0,1-.2,1.574,2.83,2.83,0,0,1-.218.342l0,0c-.114.15-.235.3-.358.463-.911,1.163-1.854,2.363-1.419,4.348l.641,2.935a6.218,6.218,0,0,0,5.171-1.256,10.8,10.8,0,0,1,3.656-1.826c.062-.157.131-.31.194-.467.408-1.017.829-2.026,1.277-3.013a3.632,3.632,0,0,0-.447-.638c-.092-.109-.191-.211-.291-.309s-.187-.176-.286-.256-.223-.181-.341-.262c-.1-.071-.2-.139-.309-.2-.122-.077-.245-.155-.369-.226l-.207-.112c-.144-.078-.286-.157-.429-.231-.173-.092-.341-.18-.5-.269a2.369,2.369,0,0,1-1.039-1.166,2.389,2.389,0,0,1-.113-.394Zm-8.951,2.755c.12.009.237,0,.359.019.036.006.071.02.107.026.02,0,.04,0,.059.005a4.119,4.119,0,0,1,.523.131c.052.017.105.042.158.061a4.679,4.679,0,0,1,.475.2c.075.036.148.076.221.115a5.269,5.269,0,0,1,.453.276c.056.038.112.072.168.111a7,7,0,0,1,.595.482c.052.047.1.1.153.146.157.148.312.305.467.472.059.063.118.129.177.194.184.211.368.434.552.676.013.019.028.036.043.055l.014.016c0-.13.014-.249.023-.373.007-.1.009-.193.019-.285a5.952,5.952,0,0,1,.118-.671c.011-.04.014-.084.025-.124a5.7,5.7,0,0,1,.241-.724c.027-.07.059-.135.09-.2.071-.158.143-.314.222-.462.041-.079.086-.154.13-.23.077-.13.153-.258.233-.382.047-.072.092-.143.14-.212.085-.127.174-.247.262-.366.04-.055.08-.112.121-.166.123-.159.243-.316.359-.463s.228-.29.333-.43h0c.061-.1.077-.142.05-.22a.647.647,0,0,0-.35-.341,2.246,2.246,0,0,1-1.306-1.581l-.062-.286,0,0v0l-.063-.286a2.237,2.237,0,0,1,.305-1.7,2.232,2.232,0,0,1,1.413-.985l3.024-.661,3.1-.678h.009l.284-.062a2.228,2.228,0,0,1,1.693.3,2.227,2.227,0,0,1,.985,1.414l.128.581a2.264,2.264,0,0,1-.5,1.949.6.6,0,0,0-.147.469.23.23,0,0,0,.119.181c.162.09.322.175.488.263a11.106,11.106,0,0,1,2.107,1.341,3.809,3.809,0,0,0,.694-2.1,4.023,4.023,0,0,0-2.7-3.889l-.656-.23-.048-.694a2.906,2.906,0,0,0-2.891-2.7h-1.189l.124-1.179a1.389,1.389,0,0,0-.05-.561,1.525,1.525,0,0,0-1.241-1.076,1.494,1.494,0,0,0-1.233.419l-.709.7-.74-.669a1.749,1.749,0,0,0-1.18-.462,1.774,1.774,0,0,0-1.771,1.712v1.051l-.976.074a2.629,2.629,0,0,0-2.418,2.609,2.615,2.615,0,0,0,.077.61l.3,1.247-1.282.054a3.173,3.173,0,0,0-3.051,3.177,3.181,3.181,0,0,0,.43,1.59l.449.774-.692.57a2.063,2.063,0,0,0-.754,1.59,2.01,2.01,0,0,0,.148.757,6.616,6.616,0,0,1,1.49-.736c.031-.011.061-.017.091-.028a5,5,0,0,1,.61-.154c.079-.014.158-.021.238-.031a4.252,4.252,0,0,1,.482-.041c.026,0,.052-.007.078-.007C-787.382-971.609-787.3-971.591-787.214-971.586Zm13.409-6.785-2.74.6-3.1.678a.444.444,0,0,0-.334.52.445.445,0,0,0,.52.334l5.833-1.277a.436.436,0,0,0,.271-.19.434.434,0,0,0,.061-.329.445.445,0,0,0-.429-.344A.517.517,0,0,0-773.8-978.371Zm-3.041,43.226A1.056,1.056,0,0,1-777.9-936.2a1.056,1.056,0,0,1,1.057-1.057h2.111a1.056,1.056,0,0,1,1.057,1.057,1.056,1.056,0,0,1-1.057,1.056Zm-15.838,0a1.055,1.055,0,0,1-1.056-1.056,1.056,1.056,0,0,1,1.056-1.057h11.614a1.057,1.057,0,0,1,1.057,1.057,1.056,1.056,0,0,1-1.057,1.056Zm0-4.223a1.056,1.056,0,0,1-1.056-1.057,1.055,1.055,0,0,1,1.056-1.056h9.5a1.055,1.055,0,0,1,1.056,1.056,1.056,1.056,0,0,1-1.056,1.057Zm0-4.225a1.055,1.055,0,0,1-1.056-1.056,1.055,1.055,0,0,1,1.056-1.056h7.391a1.056,1.056,0,0,1,1.057,1.056,1.056,1.056,0,0,1-1.057,1.056Zm25.723-18.685a1.058,1.058,0,0,1-.661-1.34,3.982,3.982,0,0,1,5.035-2.484,1.86,1.86,0,0,0,2.357-1.16,1.056,1.056,0,0,1,1.34-.661,1.056,1.056,0,0,1,.659,1.34,3.975,3.975,0,0,1-5.034,2.483,1.862,1.862,0,0,0-2.357,1.162,1.056,1.056,0,0,1-1,.717A1.031,1.031,0,0,1-766.961-962.277Zm2.5-7.357a1.055,1.055,0,0,1-.661-1.34,3.945,3.945,0,0,1,2-2.285,3.935,3.935,0,0,1,3.032-.2,1.859,1.859,0,0,0,2.357-1.163,1.054,1.054,0,0,1,1.338-.661,1.059,1.059,0,0,1,.661,1.34,3.976,3.976,0,0,1-5.035,2.485,1.845,1.845,0,0,0-1.418.092,1.846,1.846,0,0,0-.939,1.069,1.054,1.054,0,0,1-1,.717A1.058,1.058,0,0,1-764.463-969.635Zm2.5-7.357a1.057,1.057,0,0,1-.66-1.341,3.492,3.492,0,0,1,4.419-2.18,1.358,1.358,0,0,0,1.048-.066,1.365,1.365,0,0,0,.693-.79,1.055,1.055,0,0,1,1.34-.661,1.055,1.055,0,0,1,.66,1.339,3.463,3.463,0,0,1-1.758,2.005,3.467,3.467,0,0,1-2.662.174,1.372,1.372,0,0,0-1.74.858,1.056,1.056,0,0,1-1,.718A1.046,1.046,0,0,1-761.967-976.992Z" transform="translate(1031 1215)"/></g></svg>