<svg xmlns="http://www.w3.org/2000/svg" xmlns:xlink="http://www.w3.org/1999/xlink" width="60.999" height="61" viewBox="0 0 60.999 61"><defs><style>.a{stroke:rgba(0,0,0,0);fill:url(#a);}</style><linearGradient id="a" x1="0.821" y1="0.901" x2="0.199" y2="0.122" gradientUnits="objectBoundingBox"><stop offset="0" stop-color="#be7531"/><stop offset="1" stop-color="#dba88b"/></linearGradient></defs><g transform="translate(-225.501 -225.5)"><path class="a" d="M-1174.238-739a.879.879,0,0,1-.747-.416.88.88,0,0,1-.039-.857l1.942-3.882a.877.877,0,0,1,.786-.486h1.062v-3a.879.879,0,0,1,.879-.878h12.711v-2.13h-12.711a.879.879,0,0,1-.879-.879v-3.883a.88.88,0,0,1,.879-.879h1.062v-1.057a20.324,20.324,0,0,1,17.473-20.1v-2.322h-3a.879.879,0,0,1-.878-.879.878.878,0,0,1,.878-.878h11.65a.878.878,0,0,1,.878.878.879.879,0,0,1-.878.879h-3v2.322a20.323,20.323,0,0,1,17.472,20.1v1.057h1.063a.88.88,0,0,1,.879.879v3.883a.879.879,0,0,1-.879.879h-12.711v2.13h12.711a.879.879,0,0,1,.879.878v3h1.062a.879.879,0,0,1,.853.666l.971,3.882a.884.884,0,0,1-.16.754.878.878,0,0,1-.693.338Zm1.422-1.757h46.958l-.531-2.126h-45.365Zm3.34-3.883h40.954v-2.126h-40.954Zm13.59-3.883h13.774v-2.13h-13.774Zm-13.59-3.888h40.954v-2.125h-.97c-.03,0-.061,0-.093,0s-.062,0-.094,0h-30.872a.879.879,0,0,1-.879-.879.88.88,0,0,1,.879-.879h30.086v-1.057A18.555,18.555,0,0,0-1149-775.886a18.556,18.556,0,0,0-18.535,18.536v1.057h3.472a.879.879,0,0,1,.878.879.879.879,0,0,1-.878.879h-4.258c-.031,0-.061,0-.094,0s-.062,0-.093,0h-.969Zm21.54-25.205v-2.153h-2.126v2.152q.529-.027,1.062-.027C-1148.643-777.644-1148.289-777.635-1147.937-777.616Zm24.176,9.495a.879.879,0,0,1-.879-.879.879.879,0,0,1,.879-.878h3.882A.879.879,0,0,1-1119-769a.879.879,0,0,1-.879.879Zm-54.359,0A.879.879,0,0,1-1179-769a.879.879,0,0,1,.879-.878h3.882a.879.879,0,0,1,.879.878.879.879,0,0,1-.879.879Zm50.216-13.058a.881.881,0,0,1,.322-1.2l3.362-1.941a.878.878,0,0,1,1.2.321.878.878,0,0,1-.322,1.2l-3.362,1.941a.876.876,0,0,1-.439.118A.878.878,0,0,1-1127.9-781.179Zm-43.392.321-3.361-1.941a.878.878,0,0,1-.322-1.2.878.878,0,0,1,1.2-.321l3.363,1.941a.881.881,0,0,1,.322,1.2.879.879,0,0,1-.762.439A.872.872,0,0,1-1171.3-780.858Zm34.476-9.238a.877.877,0,0,1-.321-1.2l1.941-3.363a.878.878,0,0,1,1.2-.32.877.877,0,0,1,.322,1.2l-1.941,3.363a.878.878,0,0,1-.761.439A.876.876,0,0,1-1136.82-790.1Zm-25.56-.32-1.941-3.363a.877.877,0,0,1,.321-1.2.879.879,0,0,1,1.2.32l1.941,3.363a.877.877,0,0,1-.321,1.2.876.876,0,0,1-.439.119A.879.879,0,0,1-1162.38-790.417Zm12.5-3.821v-3.883A.879.879,0,0,1-1149-799a.879.879,0,0,1,.879.879v3.883a.879.879,0,0,1-.879.879A.879.879,0,0,1-1149.878-794.238Z" transform="translate(1405 1025)"/></g></svg>