<svg xmlns="http://www.w3.org/2000/svg" xmlns:xlink="http://www.w3.org/1999/xlink" width="61" height="61" viewBox="0 0 61 61"><defs><style>.a{stroke:rgba(0,0,0,0);fill:url(#a);}</style><linearGradient id="a" x1="0.821" y1="0.901" x2="0.199" y2="0.122" gradientUnits="objectBoundingBox"><stop offset="0" stop-color="#ccc"/><stop offset="1" stop-color="#e6e6e6"/></linearGradient></defs><g transform="translate(-225.5 -225.5)"><path class="a" d="M-1179-958a30.034,30.034,0,0,1,30-30,30.035,30.035,0,0,1,30,30,30.034,30.034,0,0,1-30,30A30.033,30.033,0,0,1-1179-958Zm2,0a28.032,28.032,0,0,0,28,28,28.032,28.032,0,0,0,28-28,28.032,28.032,0,0,0-28-28A28.033,28.033,0,0,0-1177-958Zm35,0a4,4,0,0,1,4-4,4,4,0,0,1,4,4,4,4,0,0,1-4,4A4,4,0,0,1-1142-958Zm2,0a2,2,0,0,0,2,2,2,2,0,0,0,2-2,2,2,0,0,0-2-2A2,2,0,0,0-1140-958Zm-13,0a4,4,0,0,1,4-4,4,4,0,0,1,4,4,4,4,0,0,1-4,4A4,4,0,0,1-1153-958Zm2,0a2,2,0,0,0,2,2,2,2,0,0,0,2-2,2,2,0,0,0-2-2A2,2,0,0,0-1151-958Zm-13,0a4,4,0,0,1,4-4,4,4,0,0,1,4,4,4,4,0,0,1-4,4A4,4,0,0,1-1164-958Zm2,0a2,2,0,0,0,2,2,2,2,0,0,0,2-2,2,2,0,0,0-2-2A2,2,0,0,0-1162-958Z" transform="translate(1405 1214)"/></g></svg>