<svg xmlns="http://www.w3.org/2000/svg" xmlns:xlink="http://www.w3.org/1999/xlink" width="61" height="55.825" viewBox="0 0 61 55.825"><defs><style>.a{stroke:rgba(0,0,0,0);fill:url(#a);}</style><linearGradient id="a" x1="0.821" y1="0.901" x2="0.199" y2="0.122" gradientUnits="objectBoundingBox"><stop offset="0" stop-color="#009efd"/><stop offset="1" stop-color="#2af598"/></linearGradient></defs><g transform="translate(-499.701 -499.457)"><path class="a" d="M-111-665.592a4.646,4.646,0,0,1-4.032,2.373H-121.1a.9.9,0,0,1-.9-.9.9.9,0,0,1,.9-.9h6.072a2.882,2.882,0,0,0,2.627-1.689c-.043-.042-.073-.094-.115-.135a12.714,12.714,0,0,1-.847-.991,7.268,7.268,0,0,1-1.491-2.249c-.143-.277-.324-.534-.446-.82a12.551,12.551,0,0,1-1.011-4.938,9.369,9.369,0,0,1,.5-3.329,7.681,7.681,0,0,1,1.045-2.6,7.775,7.775,0,0,1,1.457-2.148,13.006,13.006,0,0,1,.935-1.041c.083-.079.142-.175.226-.251V-699.7a2.887,2.887,0,0,0-2.884-2.884h-25.082A2.886,2.886,0,0,0-143-699.7v31.8a2.887,2.887,0,0,0,2.883,2.885h14.9a.9.9,0,0,1,.9.9.9.9,0,0,1-.9.9h-14.9a4.693,4.693,0,0,1-4.686-4.687v-31.8a4.692,4.692,0,0,1,4.686-4.686h2.7v-1.721h-2.817a.9.9,0,0,1-.9-.9v-3.753a.9.9,0,0,1,.9-.9.9.9,0,0,1,.9.9v2.851h4.39v-8.328h-4.39v.859a.9.9,0,0,1-.9.9.9.9,0,0,1-.9-.9v-1.759a.9.9,0,0,1,.9-.9h25.325a.9.9,0,0,1,.9.9v10.13a.9.9,0,0,1-.9.9h-2.817v1.72h2.7a4.692,4.692,0,0,1,4.687,4.686v13.179a12.479,12.479,0,0,1,5.623-1.839v-4.849a9.939,9.939,0,0,1,8.219-9.805.9.9,0,0,1,1.044.731.9.9,0,0,1-.732,1.044,8.139,8.139,0,0,0-6.728,8.03v4.768c.326.02.632.107.952.151a8.5,8.5,0,0,1,2.389.571,8.121,8.121,0,0,1,2.192,1.006,7.8,7.8,0,0,1,1.349.869H-86.6v-7.367a8.176,8.176,0,0,0-5.973-7.859.9.9,0,0,1-.628-1.109.9.9,0,0,1,1.109-.628,9.984,9.984,0,0,1,7.3,9.6v16.533A9.963,9.963,0,0,1-95-666.727a12.56,12.56,0,0,1-8.681,3.508A12.537,12.537,0,0,1-111-665.592Zm.361-2.027a10.715,10.715,0,0,0,6.951,2.6c8.827,0,14.362-10.522,8.225-17.774Zm18.165-13.9a7.182,7.182,0,0,1,.923,2.395,8.969,8.969,0,0,1,.487,3.28,13.244,13.244,0,0,1-2.247,7.195,8.173,8.173,0,0,0,6.709-8.03v-7.366H-94.15A9.117,9.117,0,0,1-92.473-681.52Zm-19.44,12.625,15.176-15.175a10.717,10.717,0,0,0-6.95-2.6C-112.543-686.666-118.023-676.111-111.913-668.894Zm-23.7-35.5h16.087v-1.721h-16.087Zm15.412-3.523h4.392v-8.328H-120.2Zm-6.469,0H-122v-8.328h-4.667Zm-6.468,0h4.667v-8.328h-4.667ZM-138.29-683.8a10.73,10.73,0,0,1,10.718-10.718A10.73,10.73,0,0,1-116.853-683.8a10.731,10.731,0,0,1-10.719,10.719A10.732,10.732,0,0,1-138.29-683.8Zm1.8,0a8.926,8.926,0,0,0,8.915,8.915,8.926,8.926,0,0,0,8.917-8.915,8.926,8.926,0,0,0-8.917-8.917A8.926,8.926,0,0,0-136.488-683.8Zm8.014,4.51V-682.9h-3.61a.9.9,0,0,1-.9-.9.9.9,0,0,1,.9-.9h3.61v-3.611a.9.9,0,0,1,.9-.9.9.9,0,0,1,.9.9v3.611h3.611a.9.9,0,0,1,.9.9.9.9,0,0,1-.9.9h-3.611v3.609a.9.9,0,0,1-.9.9A.9.9,0,0,1-128.473-679.294Z" transform="translate(645 1218)"/></g></svg>