<svg xmlns="http://www.w3.org/2000/svg" xmlns:xlink="http://www.w3.org/1999/xlink" width="56.241" height="55.913" viewBox="0 0 56.241 55.913"><defs><style>.a{stroke:rgba(0,0,0,0);stroke-miterlimit:10;fill:url(#a);}</style><linearGradient id="a" x1="0.821" y1="0.901" x2="0.199" y2="0.122" gradientUnits="objectBoundingBox"><stop offset="0" stop-color="#821feb"/><stop offset="1" stop-color="#d515c8"/></linearGradient></defs><g transform="translate(-225.39 -225.621)"><path class="a" d="M50.19,54.8a3.889,3.889,0,0,1-2.817-1.211L31.4,36.05a.826.826,0,0,1,1.221-1.113L48.592,52.474a2.245,2.245,0,0,0,1.631.675,2.821,2.821,0,0,0,2.928-2.927,2.253,2.253,0,0,0-.682-1.635L34.55,32.266a.826.826,0,1,1,1.112-1.222L53.587,47.369A3.892,3.892,0,0,1,54.8,50.19,4.472,4.472,0,0,1,50.276,54.8ZM7.553,53.681a4.623,4.623,0,0,1-1.5-3.22A3.889,3.889,0,0,1,7.09,47.578L33.823,20.115A4.552,4.552,0,0,0,35.09,16.7l-.184-3.239v-.017A7.622,7.622,0,0,1,37.518,7.4L40.94,4.411A15.15,15.15,0,0,1,51.688.667,3.416,3.416,0,0,1,54.9,3.51a15.151,15.151,0,0,1-2.43,11.119l-2.56,3.756A7.62,7.62,0,0,1,44.223,21.7h-.017l-3.238.206a4.563,4.563,0,0,0-3.241,1.67L13.672,53.405a3.883,3.883,0,0,1-2.74,1.384c-.119.009-.237.013-.355.013A4.618,4.618,0,0,1,7.553,53.681ZM42.027,5.655,38.6,8.646a5.981,5.981,0,0,0-2.048,4.729l.184,3.231a6.219,6.219,0,0,1-1.732,4.659L8.278,48.726A2.244,2.244,0,0,0,7.7,50.4a2.82,2.82,0,0,0,3.1,2.746,2.245,2.245,0,0,0,1.591-.778L36.443,22.54a6.216,6.216,0,0,1,4.419-2.28l3.23-.2a5.98,5.98,0,0,0,4.448-2.6L51.1,13.7a13.513,13.513,0,0,0,2.166-9.913,1.767,1.767,0,0,0-1.658-1.47Q51.28,2.3,50.954,2.3A13.513,13.513,0,0,0,42.027,5.655ZM22.995,26.825l-1.429-1.568a4.555,4.555,0,0,0-3.333-1.471l-3.244-.01H14.97a7.645,7.645,0,0,1-5-2.023.616.616,0,0,1-.071-.075L.459,10.459A1.938,1.938,0,0,1,1.941,7.273a1.924,1.924,0,0,1,1.371.568L11.869,16.4a.52.52,0,0,0,.732,0l.422-.422L3.485,6.439A.826.826,0,1,1,4.653,5.271l9.538,9.538.618-.617L5.272,4.654A.826.826,0,1,1,6.439,3.485l9.539,9.537L16.4,12.6a.516.516,0,0,0,0-.732L7.842,3.311A1.937,1.937,0,0,1,10.459.459L21.677,9.9a.9.9,0,0,1,.076.073,7.659,7.659,0,0,1,2.023,5v.017l.01,3.246a4.557,4.557,0,0,0,1.473,3.335l1.529,1.393a.826.826,0,1,1-1.113,1.221l-1.531-1.395a6.219,6.219,0,0,1-2.011-4.55L22.124,15a6,6,0,0,0-1.552-3.877L9.4,1.722a.286.286,0,0,0-.386.421l8.56,8.559a2.173,2.173,0,0,1,0,3.069l-1.006,1h0l-1.786,1.786v0l-1.006,1a2.171,2.171,0,0,1-3.069,0L2.143,9.009a.285.285,0,0,0-.42.386l9.4,11.177A6,6,0,0,0,15,22.123l3.236.01a6.219,6.219,0,0,1,4.548,2.008l1.431,1.571a.826.826,0,1,1-1.222,1.113Z" transform="translate(226 226.231)"/></g></svg>