<svg xmlns="http://www.w3.org/2000/svg" width="19.689" height="16.429" viewBox="0 0 19.689 16.429"><defs><style>.a{fill:none;stroke:#5b5454;stroke-linecap:round;stroke-linejoin:round;stroke-width:3px;}</style></defs><path class="a" d="M13.17,7.7c-1.2-.671,0-2.686,0-2.686A2.325,2.325,0,0,0,10.628,3L7.238,9.043v7.386H16.8a1.627,1.627,0,0,0,1.7-1.141l1.17-6.043a1.161,1.161,0,0,0-.4-1.083,1.915,1.915,0,0,0-1.3-.462S14.369,8.371,13.17,7.7ZM7.238,16.429H4.7A1.55,1.55,0,0,1,3,15.086v-4.7A1.55,1.55,0,0,1,4.7,9.043H7.238" transform="translate(-1.5 -1.5)"/></svg>