<svg xmlns="http://www.w3.org/2000/svg" width="130" height="100" viewBox="0 0 108.044 83.86"><defs><style>.a{fill:#fff;}</style></defs><g transform="translate(77.513 34.788)"><path class="a" d="M2278.443,986.693a4.751,4.751,0,1,1-9.5,0v-9.5h1.8V983a4.624,4.624,0,0,1,2.952-1.061A4.759,4.759,0,0,1,2278.443,986.693Zm-1.776,0a2.964,2.964,0,1,0-2.975,2.975A2.962,2.962,0,0,0,2276.667,986.693Z" transform="translate(-2268.94 -977.19)"/></g><g transform="translate(66.904 39.54)"><path class="a" d="M2125.712,1050.351v4.751h-1.776v-1.038a4.8,4.8,0,0,1-2.975,1.038,4.751,4.751,0,1,1,4.751-4.751Zm-1.776,0a2.976,2.976,0,1,0-2.975,2.975A2.982,2.982,0,0,0,2123.937,1050.351Z" transform="translate(-2116.21 -1045.6)"/></g><g transform="translate(63.722 34.788)"><path class="a" d="M2070.4,977.19h1.8v14.254h-1.8Z" transform="translate(-2070.4 -977.19)"/></g><g transform="translate(52.799 39.54)"><path class="a" d="M1922.643,1045.6h-1.776v4.751a2.976,2.976,0,1,1-5.951,0V1045.6h-1.776v4.751a4.752,4.752,0,0,0,7.73,3.7l0,0v5.79h1.776Z" transform="translate(-1913.14 -1045.6)"/></g><g transform="translate(47.461 37.305)"><path class="a" d="M1837.989,1013.42l1.515,2.49h-1.079l-2.124-2.49Z" transform="translate(-1836.3 -1013.42)"/></g><g transform="translate(39.56 39.54)"><path class="a" d="M1732.053,1050.351a4.752,4.752,0,1,1-4.752-4.751A4.76,4.76,0,0,1,1732.053,1050.351Zm-1.776,0a2.975,2.975,0,1,0-2.976,2.952A2.983,2.983,0,0,0,1730.277,1050.351Z" transform="translate(-1722.55 -1045.6)"/></g><g transform="translate(28.675 34.788)"><path class="a" d="M1575.352,986.693a4.751,4.751,0,1,1-9.5,0v-9.5h1.8V983a4.623,4.623,0,0,1,2.952-1.061A4.759,4.759,0,0,1,1575.352,986.693Zm-1.776,0a2.964,2.964,0,1,0-2.975,2.975A2.962,2.962,0,0,0,1573.576,986.693Z" transform="translate(-1565.85 -977.19)"/></g><g transform="translate(93.441 17.805)"><path class="a" d="M2512.843,739.991a7.3,7.3,0,1,1-7.3-7.3A7.314,7.314,0,0,1,2512.843,739.991Zm-2.729,0a4.573,4.573,0,1,0-4.573,4.537A4.584,4.584,0,0,0,2510.114,739.991Z" transform="translate(-2498.24 -732.69)"/></g><g transform="translate(76.667 17.828)"><path class="a" d="M2271.363,733.02h-2.729v7.3a4.572,4.572,0,1,1-9.145,0v-7.3h-2.729v7.3a7.3,7.3,0,0,0,11.878,5.69l0,.006v8.9h2.729Z" transform="translate(-2256.76 -733.02)"/></g><g transform="translate(59.907 17.828)"><path class="a" d="M2018.2,747.622h-2.729v-7.3a7.3,7.3,0,0,1,14.6,0v7.3h-2.729v-7.3a4.572,4.572,0,1,0-9.145,0Z" transform="translate(-2015.47 -733.02)"/></g><g transform="translate(43.18 17.828)"><path class="a" d="M1786.533,733.02h2.729v7.3a7.3,7.3,0,1,1-14.6,0v-7.3h2.728v7.3a4.572,4.572,0,0,0,9.145,0Z" transform="translate(-1774.66 -733.02)"/></g><g transform="translate(26.452 10.526)"><path class="a" d="M1533.85,642.5a7.315,7.315,0,0,1,11.874-5.706v-8.9h2.729v14.6a7.3,7.3,0,0,1-14.6,0Zm2.729,0a4.572,4.572,0,1,0,4.572-4.573A4.583,4.583,0,0,0,1536.579,642.5Z" transform="translate(-1533.85 -627.9)"/></g><g transform="translate(0 0)"><path class="a" d="M1229.562,531.517a37.015,37.015,0,1,1-16.281-45.416l3.2-3.794A41.927,41.927,0,1,0,1234.45,532.4Z" transform="translate(-1153.036 -476.366)"/></g></svg>