<?xml version="1.0" standalone="no"?>
<!DOCTYPE svg PUBLIC "-//W3C//DTD SVG 20010904//EN"
 "http://www.w3.org/TR/2001/REC-SVG-20010904/DTD/svg10.dtd">
<svg version="1.0" xmlns="http://www.w3.org/2000/svg"
 width="272.000000pt" height="272.000000pt" viewBox="0 0 272.000000 272.000000"
 preserveAspectRatio="xMidYMid meet">
<metadata>
Created by potrace 1.14, written by Peter Selinger 2001-2017
</metadata>
<g transform="translate(0.000000,272.000000) scale(0.100000,-0.100000)"
fill="#000000" stroke="none">
<path d="M0 1360 l0 -1360 1360 0 1360 0 0 1360 0 1360 -1360 0 -1360 0 0
-1360z m2480 202 l0 -969 24 -23 c34 -31 41 -71 21 -114 -19 -39 -62 -61 -101
-52 -39 10 -74 50 -74 86 0 34 25 90 40 90 7 0 10 335 10 935 l0 935 -1060 0
-1060 0 0 -235 0 -235 563 0 c614 0 612 0 733 -60 197 -97 279 -357 178 -560
-57 -112 -158 -189 -294 -221 -37 -8 -172 -15 -409 -18 l-354 -6 233 -160
c577 -395 530 -365 555 -353 57 26 125 -27 125 -98 0 -57 -31 -93 -86 -101
-33 -4 -45 -1 -69 20 -16 13 -34 42 -40 63 -10 37 -35 55 -497 374 l-487 335
487 6 c431 4 493 7 542 23 195 63 292 224 246 407 -29 114 -108 200 -226 246
-41 16 -102 18 -660 23 l-615 5 -3 313 -2 312 1140 0 1140 0 0 -968z m-1952
758 c17 -11 32 -24 32 -29 0 -5 185 -11 448 -14 523 -5 561 -10 737 -96 169
-83 279 -207 341 -386 26 -74 28 -92 28 -235 0 -142 -2 -162 -27 -235 -63
-188 -175 -314 -360 -404 l-97 -48 112 -75 c62 -42 187 -127 278 -190 91 -62
231 -158 312 -213 l147 -100 1 -53 0 -52 -1137 2 -1138 3 -3 707 -2 708 514 0
514 0 30 30 c39 38 79 39 121 4 26 -21 31 -33 31 -69 0 -79 -64 -124 -130 -90
-17 9 -34 23 -37 31 -4 12 -75 14 -484 14 l-479 0 0 -630 0 -630 1030 0 c567
0 1030 2 1030 4 0 6 -47 39 -420 296 -162 112 -340 235 -395 274 l-99 70 73
12 c163 28 272 84 373 193 111 120 168 270 168 445 0 280 -166 500 -443 590
-121 39 -212 46 -634 46 l-393 0 -15 -24 c-35 -53 -111 -57 -156 -10 -18 19
-24 37 -24 71 0 38 5 49 33 74 38 34 74 37 120 9z"/>
<path d="M1480 540 c-11 -11 -20 -27 -20 -35 0 -18 35 -55 53 -55 18 0 43 21
50 42 7 20 -28 68 -49 68 -8 0 -23 -9 -34 -20z"/>
<path d="M440 2270 c-11 -11 -20 -27 -20 -35 0 -19 35 -55 54 -55 42 0 60 64
28 93 -24 22 -38 21 -62 -3z"/>
</g>
</svg>
