<svg xmlns="http://www.w3.org/2000/svg" width="159.259" height="95.386" viewBox="0 0 159.259 95.386"><defs><style>.a{fill:#b4eefb;stroke:rgba(0,0,0,0);fill-rule:evenodd;}</style></defs><g transform="translate(-196.946 -684.391)"><path class="a" d="M236.327,691.451a2.167,2.167,0,0,1,2.786-.179l3.467,1.692,1.6-1.06s-2.98-2.91-4.667-3.04-1.576-2.765-7.714-2.609c-4.524.119-5.734-.238-6.066-.433l2.861,2.788s-4.208,8.38-4.149,9.334C224.446,697.945,235.013,692.734,236.327,691.451Zm85.907,55.491c-1.174-.878-9.419,5.618-8.867,9.875l-5.488,1.544,2.607,1.5s6.323,2.7,8.831,2.537a11.721,11.721,0,0,1,4.226.441l1.993.588-.2-3.086-5.369-.85S323.411,747.824,322.235,746.943Zm46.544-.308c1.288.961,7.826-.505,7.826-.505l2.226.275-.065-1.042-2.228-.275s-2.254-.694-2.539-1.3.37-5.683.37-5.683l1.946-4.107-.329-1.234c-3.892.456-10.479,8.844-10.479,8.844l-4.4.285C363.086,745.953,367.486,745.67,368.779,746.634Zm-86.835,16.229,2.853.772.415-2.174L281.265,761l-2.887-1.485c1.612-1.055,1.739-7.745,1.739-7.745l-3.06.2s3.537-1.417,3.475-2.371-2.884-5.776-2.884-5.776-1.1,4.6-2.216,4.675-3.858,9.551-3.858,9.551l-4.991.56C269.993,763.871,281.943,762.863,281.943,762.863Zm-21.632-24.529c1.192,1.117,4.706-5.071,4.706-5.071l1.239-2.467,2.306-3.247,6.216,1.029.2-1.2s-11.593-6.414-19.784-3.262L259.231,726S259.12,737.22,260.312,738.335Zm59.327-30.243s3.407,3.345,13.246,3.553l2.972.438.56,1.008.381-1.7-5.815-2.56.658-1.3s1.959-7.67-2.576-9.476c0,0-5.182,7.25-4.6,8.681,0,0-5.924-.459-6.59.63l.285.609ZM358.3,721.111l.819-2.565-1.974-.085-1.993-.5s-8.38-4.281-14.9-2.6l3.638,3.12s2.332,9.484,4.571,9.974S352.824,720,352.824,720l3.926-.044Zm3.493,46.715,4.594,2.64s6.255,9.448,7.255,9.8,2.69-7.927,2.69-7.927l3.133-.832,3.019,1.068-.326-1.241S369.147,763.794,361.79,767.826Z" transform="translate(-27 -1)"/></g></svg>