<svg xmlns="http://www.w3.org/2000/svg" xmlns:xlink="http://www.w3.org/1999/xlink" width="670.678" height="188.661" viewBox="0 0 670.678 188.661"><defs><style>.a,.b{stroke:rgba(0,0,0,0);}.a{fill:url(#a);}.b{fill:url(#b);}</style><radialGradient id="a" cx="0.528" cy="0.838" r="2.807" gradientTransform="matrix(-0.278, 0.052, -0.012, -0.811, 0.685, 1.49)" gradientUnits="objectBoundingBox"><stop offset="0" stop-color="#7adb43"/><stop offset="1" stop-color="#66cb3e"/></radialGradient><radialGradient id="b" cx="0.637" cy="1.168" r="0.825" gradientTransform="matrix(-0.081, -0.966, 0.493, -0.419, 0.112, 2.273)" xlink:href="#a"/></defs><g transform="translate(-1249.822 -611.839)"><path class="a" d="M327.229,447c33.216-27.033,83.131-38.688,154.575-13.248,81.1,28.877,113-18.857,150.351-66.591,32.716-41.813,69.612-83.625,147.412-73.948C895.267,307.6,900.9,393.459,864.64,441.788q-2.013,2.683-4.019,5.212Z" transform="translate(924 353)"/><path class="b" d="M-33.123,535.024C-22.5,523.4-8.591,511.245,9.106,498.727c74.979-53.038,130.707-42.317,182.617-31.6C246.487,478.442,297,489.752,361.385,426.2,441.936,346.7,513.149,337.856,563,354.412V535.024Z" transform="translate(1357 264.976)"/></g></svg>