<svg xmlns="http://www.w3.org/2000/svg" xmlns:xlink="http://www.w3.org/1999/xlink" width="218.753" height="55.662" viewBox="0 0 218.753 55.662"><defs><style>.a{opacity:0.72;fill:url(#a);}</style><linearGradient id="a" y1="0.5" x2="1" y2="0.5" gradientUnits="objectBoundingBox"><stop offset="0" stop-color="#f2f2f2"/><stop offset="0.006" stop-color="#53e1ff" stop-opacity="0.502"/><stop offset="1" stop-color="#3edeff" stop-opacity="0.251"/></linearGradient></defs><path class="a" d="M1123.308,260.777c.033-.467.1-.926.1-1.4a20.148,20.148,0,0,0-17.833-20.036,20.57,20.57,0,0,0-2.347-.15,20.312,20.312,0,0,0-4.122.431,38.654,38.654,0,0,0-73.413-6.562c-.776-.235-1.563-.439-2.368-.6a25.879,25.879,0,0,0-5.414-.549,26.807,26.807,0,0,0-26.815,26.818c0,.552.062,1.089.1,1.635l-.1,0-33.527,4.6h218.753Z" transform="translate(-957.566 -209.301)"/></svg>