<svg xmlns="http://www.w3.org/2000/svg" width="13.5" height="18" viewBox="0 0 13.5 18"><defs><style>.a{fill:#0096db;}</style></defs><path class="a" d="M6.75-12.375a3.255,3.255,0,0,1,2.391.984A3.255,3.255,0,0,1,10.125-9a3.255,3.255,0,0,1-.984,2.391,3.255,3.255,0,0,1-2.391.984,3.255,3.255,0,0,1-2.391-.984A3.255,3.255,0,0,1,3.375-9a3.255,3.255,0,0,1,.984-2.391A3.255,3.255,0,0,1,6.75-12.375Zm0,5.625a2.162,2.162,0,0,0,1.582-.668A2.162,2.162,0,0,0,9-9a2.162,2.162,0,0,0-.668-1.582A2.162,2.162,0,0,0,6.75-11.25a2.162,2.162,0,0,0-1.582.668A2.162,2.162,0,0,0,4.5-9a2.162,2.162,0,0,0,.668,1.582A2.162,2.162,0,0,0,6.75-6.75Zm0-9a6.515,6.515,0,0,1,3.375.914,6.879,6.879,0,0,1,2.461,2.461A6.515,6.515,0,0,1,13.5-9a6.4,6.4,0,0,1-.281,1.986,9.9,9.9,0,0,1-1.09,2.127q-.563.879-2.32,3.41L7.453,1.9a.807.807,0,0,1-.7.352.807.807,0,0,1-.7-.352L3.691-1.477q-1.758-2.531-2.32-3.41A9.9,9.9,0,0,1,.281-7.014,6.4,6.4,0,0,1,0-9a6.515,6.515,0,0,1,.914-3.375,6.879,6.879,0,0,1,2.461-2.461A6.515,6.515,0,0,1,6.75-15.75ZM6.75.914,8.93-2.215q1.688-2.426,2.215-3.2a10.3,10.3,0,0,0,.984-1.916A5.165,5.165,0,0,0,12.375-9a5.554,5.554,0,0,0-.422-2.145,5.59,5.59,0,0,0-1.23-1.828A5.59,5.59,0,0,0,8.895-14.2a5.554,5.554,0,0,0-2.145-.422,5.554,5.554,0,0,0-2.145.422,5.59,5.59,0,0,0-1.828,1.23,5.59,5.59,0,0,0-1.23,1.828A5.554,5.554,0,0,0,1.125-9a5.166,5.166,0,0,0,.246,1.67,10.3,10.3,0,0,0,.984,1.916q.527.773,2.215,3.2Q5.906-.316,6.75.914Z" transform="translate(0 15.75)"/></svg>