<svg xmlns="http://www.w3.org/2000/svg" xmlns:xlink="http://www.w3.org/1999/xlink" width="180.459" height="171.701" viewBox="0 0 180.459 171.701"><defs><style>.a{fill:none;}.b,.e,.f,.g,.h,.j,.k{fill-rule:evenodd;}.b{fill:url(#a);}.c{clip-path:url(#b);}.d,.h{fill:#fefefe;}.e{fill:url(#c);}.f{fill:url(#d);}.g{fill:#fff;}.i,.k{fill:#0096db;}.j{fill:url(#e);}</style><radialGradient id="a" cx="0.5" cy="0.031" r="0.5" gradientUnits="objectBoundingBox"><stop offset="0" stop-color="#a9ef72"/><stop offset="0.38" stop-color="#a4e967"/><stop offset="1" stop-color="#66cb3e"/></radialGradient><clipPath id="b"><path class="a" d="M86.474,11.071A37.07,37.07,0,1,1,49.4,48.141,37.071,37.071,0,0,1,86.474,11.071Z" transform="translate(-49.403 -11.071)"/></clipPath><linearGradient id="c" x1="177.26" y1="-129.984" x2="177.26" y2="-144.22" gradientUnits="objectBoundingBox"><stop offset="0" stop-color="#0096db"/><stop offset="1" stop-color="#cce9fb"/></linearGradient><linearGradient id="d" x1="166.011" y1="-160.233" x2="166.011" y2="-180.843" gradientUnits="objectBoundingBox"><stop offset="0" stop-color="#0082c9"/><stop offset="1" stop-color="#8cd2f5"/></linearGradient><radialGradient id="e" cx="0.5" cy="0.067" r="0.414" gradientTransform="translate(-0.104 -0.014) scale(1.207 1.207)" gradientUnits="objectBoundingBox"><stop offset="0" stop-color="#94df5a"/><stop offset="0.38" stop-color="#92d557"/><stop offset="1" stop-color="#66cb3e"/></radialGradient></defs><g transform="translate(0 0)"><path class="b" d="M86.474,11.071A37.07,37.07,0,1,1,49.4,48.141,37.071,37.071,0,0,1,86.474,11.071Z" transform="translate(3.798 0.851)"/><g transform="translate(53.201 11.922)"><g class="c"><g transform="translate(-14.764 1.992)"><path class="d" d="M125.054,30.612H103.575a2.362,2.362,0,0,1,0-4.723h21.479a2.362,2.362,0,0,1,0,4.723Z" transform="translate(-30.656 -11.924)"/><path class="d" d="M104.245,24.665H95.223a2.362,2.362,0,0,1,0-4.723h9.022a2.362,2.362,0,1,1,0,4.723Z" transform="translate(-31.298 -12.381)"/><path class="d" d="M66.338,30.151H38.729c-1.677,0-3.036-1.024-3.036-2.288s1.359-2.288,3.036-2.288H66.338c1.676,0,3.036,1.024,3.036,2.288S68.013,30.151,66.338,30.151Z" transform="translate(-35.693 -11.948)"/><path class="d" d="M73.713,24.069H64.644a2.058,2.058,0,0,1-2.059-2.058v-.46a2.059,2.059,0,0,1,2.059-2.06h9.069a2.06,2.06,0,0,1,2.059,2.06v.459A2.059,2.059,0,0,1,73.713,24.069Z" transform="translate(-33.626 -12.416)"/><path class="e" d="M113.931,33.967H110.98V43.4h-1.341V38.828l-5.366,3.592v3.25h-.536V39.82h-3.221v5.851a1.609,1.609,0,0,1-1.609-1.61h0V39.168l-3.489-.036V44.7h-1.61V46.97H91.392V37.219H90.052v-1.3H85.758v11.7H82V36.568H77.173v.652h-.805v4.226H75.294V39.168H73.149v3.9h-3.22v1.26a1.342,1.342,0,0,1-1.342,1.342h0V36.894H65.637v1.951H64.173a1.758,1.758,0,0,1-1.757-1.759h0V33.968H59.464V43.4H58.123V35.919l-5.366-.051v9.8h-.536V39.82H49v5.852H47.391V87.245h77.273V43.07h-3.22v2.6H120.1V36.893H117.15v1.951h-3.22V33.967Z" transform="translate(-34.794 -11.303)"/><path class="f" d="M41.5,85.165h82.214V43.035l-3.3.031v8.867h-1.592V40.752h-3.5v3.7a2.084,2.084,0,0,1-2.085,2.085h-1.734V44.222h-3.5v10.41a1.591,1.591,0,0,1-1.592-1.591h0V51.548H102.6V46.92h-2.546v2.7H98.779V44.607h-.954v-.771H92.1V56.945H87.642v-8.07H82.55v1.542H80.96v5.757H78.1v-2.7H76.187v-6.6l-4.136.043v5.8a1.909,1.909,0,0,1-1.909,1.909h0V47.691H66.323v6.939h-.636V46.243A3.181,3.181,0,0,0,62.5,43.062h0a3.181,3.181,0,0,0-3.178,3.181h0v5.689H57.732V40.752h-3.5v5.783H50.413V44.222h-3.5V54.631H45.322V51.547H41.5V85.165Z" transform="translate(-35.246 -10.781)"/><path class="g" d="M119.955,78.418c.565-.434.414-.544.731-1.006a6.582,6.582,0,0,1,.818-.974c.111-.111.186-.17.3-.272a6.8,6.8,0,0,1,1.7-1.273c.206-.117.131-.135.38-.033a.822.822,0,0,1,.369.24,3.465,3.465,0,0,0,.267.34,3.675,3.675,0,0,1,.28.328c.5.573.448.186,1.077,1.288.143.251.271.5.428.754a5.144,5.144,0,0,1,.419.761,4.32,4.32,0,0,1,.46,1.294c.032.3.017.294-.116.49s-.32.574-.513.669c-.56.274-.432.23-.459.686-.276,0-.5-.1-.772-.095a12.283,12.283,0,0,1-1.683-.143c-.226,0-1.465-.085-1.687-.14-.585-.143-.62-.024-1.177-.184a10.3,10.3,0,0,1-1.212-.173,2.718,2.718,0,0,1,.494-.715c.094-.1.148-.252.283-.323.6-.313.279-.276.178-.57a1.2,1.2,0,0,0-.179-.326l-.388-.622Zm-12.831-9.655c.113.21.2.117.312.236.039.043.039.085.107.143.1.088.079.009.151.138a1.138,1.138,0,0,0,.359-.06c.266-.135.225.058.458-.2-.068-.2-.168-.181-.108-.456l.2-.024c.115.188.068.242.041.467.139.088.139.046.307.055.137.008.256.058.4.064.039-.043.032-.043.066-.082.072-.084.038-.031.094-.087.092-.094.049-.118.122-.236.042-.017,1.262-.016,1.519-.051.486-.062.961-.182,1.42-.223a12.979,12.979,0,0,1,2.832-.505l.448.695c.209.45-.1,1.137-.008,1.687a.666.666,0,0,0,.292.461,6.262,6.262,0,0,0,.811.765,8.072,8.072,0,0,0,1.22.893l.364.246c.1.072.114.124.208.184.071.048.16.087.25.144a5.884,5.884,0,0,0,1.921.839c.178.044.474.085.573.206-.022.121-.12.179-.215.281l-.369.381a9.539,9.539,0,0,1-.717.713L118.6,76.758c-.5.448-.336.389-.38,1.209-.017.335.024.615,0,.954a1.435,1.435,0,0,0-.31.212,1.168,1.168,0,0,0,.029.41c.051.178.055.176.187.249.037.193.068.377.12.557a1.661,1.661,0,0,1,.092.415c0,.236-.162.157-.352.18a.893.893,0,0,1-.288-.011c-.115-.008-.242.006-.359,0s-.215-.054-.323-.067l-.678-.072c-.242-.01-.5.02-.746-.013-.309-.042-.681-.013-1-.069a2.293,2.293,0,0,0-.331-.067l-2.043-.171c-.223.013-.449.03-.718.03-.108,0-.247-.014-.316-.013l-1.08-.024a4.808,4.808,0,0,1-.648.014c-.223-.024-.5-.043-.713-.045l-4.582.032c-.1-.009-.206-.051-.292-.062-.352-.048-.723-.024-1.069-.047L99.246,79.8c-.227-.04-.463-.028-.7-.058a6.131,6.131,0,0,0-.727-.033c-.879,0-.764,0-.721-.24s-.131-.451.29-.468c.438-.019.688,0,.855-.5.314-.947-.062-1.129.748-2.831a6.062,6.062,0,0,1,.655-1.172,1.093,1.093,0,0,0,.431-.465,5.394,5.394,0,0,1,.426-.9,7.682,7.682,0,0,0,.366-1.027c.4-.789.946-1.472,1.4-2.218.157-.008.278.02.424.018.2,0,.185-.085.207-.279-.029-.12-.239-.178.02-.257l.051.337a2.769,2.769,0,0,0,1.248.086c.059-.123.1-.323.156-.416.084-.139.162-.149.246-.363a4.9,4.9,0,0,0,.145-1.037A7.869,7.869,0,0,1,105.7,68c.106.039.036.043.149.079.226.071.334.025.4.351l.414.121c.178.052.089.177.4.18.005-.279.044-.612.283-.324-.065.3-.16.173-.222.356ZM97.534,57.519a.718.718,0,0,1,.341-.017c.029.439.166.834.2,1.218a1.37,1.37,0,0,1-.537-1.2Zm10.063-4.19c.26-.05.165.031.39,0a3.476,3.476,0,0,1,.391-.064c-.033.154-.056.064-.145.234-.331.627.074.7.179.76-.024.54.274,1.006.084,1.327-.128.214-.5.182-1.06.439-.229.1-.584.365-.661.339a1.659,1.659,0,0,1-.322-.6c-.023-.332.293-.136.044-.687a1.146,1.146,0,0,0-.422-.51c-.281-.2-.376-.236-.437-.439.15.013.023.039.409.114.237.046.172.059.334.178.467-.041.335-.35.664-.5.384-.171.435-.165.554-.593Zm-14.045,29.9H135.9c-.3-.13-1.6-.079-2.065-.164-.882-.159-2.369-.122-2.617-.174s-.255-.023-.381-.192c-.476-.634-.935-.351-1.659-.561a2.277,2.277,0,0,0-.839-.153.454.454,0,0,1,.039-.224c.124-.34-.028-.29-.179-.5.1-.431.53-.351.893-.358a1.147,1.147,0,0,0,.234-.608.829.829,0,0,0-.057-.392l-.154-.277a6.7,6.7,0,0,1-.474-.6l-.672-1.261a1.069,1.069,0,0,1-.154-.277l-.513-1.207a7.76,7.76,0,0,1-.521-2.056c-.088-.242-.235-.3-.275-.59a1.869,1.869,0,0,0-.18-.677c-.344-.621-.933-.177-1.262-.453a5.836,5.836,0,0,1-1.992-2.269c-.054-.1-.311-.421-.29-.517a1.85,1.85,0,0,1,.224-.412c.038-.064.053-.064.092-.127.18-.28.271-.808.5-1.007a5.9,5.9,0,0,0,.877-1.059,3.823,3.823,0,0,0,.6-1.538,4.885,4.885,0,0,0,.03-1.961c-.023-.11-.033-.256-.057-.369l-.058-.258c0-.15.107-.072.212,0a2.629,2.629,0,0,1,.851.906,5.964,5.964,0,0,1,.506.887,5.41,5.41,0,0,1,.38,1.021,2.9,2.9,0,0,1,.126.6c.094,1.048-.221,1.485.445,2.263.316.368.476,1.451,1.177,1.653a.671.671,0,0,0,.1.369c.111.209.142.465.238.659a1.209,1.209,0,0,0,.1,1.215,3.986,3.986,0,0,0,.566.616,2.711,2.711,0,0,1,.487.659,1.527,1.527,0,0,0,.534.646c.423.246.489.446.667.523.157-.066.092-.088.179-.148s.044.028.2-.052c.046-.182.033-.174-.037-.3-.1-.171-.019-.106-.02-.3,0-.209-.038-.519-.046-.752-.013-.334.087-.4-.027-.751-.144-.445.05-.943-.122-1.346l-.233-.342c-.272-.337-.2.066-.474-.527l-.2-.57c.263-.223.4-.28.417-.689a8.164,8.164,0,0,0-.571-2.757c-.081-.246-.154-.641-.255-.858a3.427,3.427,0,0,1-.227-.884,8.285,8.285,0,0,0-.981-2.385l-.6-.756c-.2-.153-.381-.364-.6-.515l-.02-.014a3.558,3.558,0,0,0-2.541-.472,3.464,3.464,0,0,0-.851.265,2.362,2.362,0,0,1-1.132-.032l-.041-.03-.611-.565c-.083-.114-.165-.172-.194-.316.242-.011.5-.015.745-.043.083-.009.678-.074.723-.069a1.047,1.047,0,0,0,.626.06c.233-.037.4-.012.515-.193-.266-.2-.569-.046-.767-.257-.2-.006-.267.055-.446.037l-1.44-.418c-.252-.082-.2,0-.381-.02l-3.452-.795a12.852,12.852,0,0,1-1.63-.489l-.108-.141c-.05-.087-.111-.212-.168-.3l-.138-.18-.017-.018a5.675,5.675,0,0,0-.881-.874,4.481,4.481,0,0,0-2.32-.809,1.19,1.19,0,0,0-.05-.409c-.08-.191-.1-.044-.085-.375a.637.637,0,0,0,.26-.31l.14-.432a3.772,3.772,0,0,0,.095-.477c.084-.594-.1-.568.52-.3.092.039.158.056.26.1s.153.087.232.128a2.72,2.72,0,0,0,1.052.346c.209.006.544.541.71.682a4.41,4.41,0,0,0,1.648.5A2.156,2.156,0,0,1,118.6,55c1.517.55,1.456.058,2.494.162a4.014,4.014,0,0,0,1.3.039c.067-.355.17-.582.233-.911.066-.348.045-.724.121-1.061.086-.39.209-.565.028-.947l-.066-.112a1.608,1.608,0,0,0-.514-.487c-.22-.157-.425-.012-1.034-.15a18.057,18.057,0,0,1-2.277-.661,3.746,3.746,0,0,1-.62-.27,1.919,1.919,0,0,0-1.246-.836c-.658-.164-.142-.322-1.179-.86-.057-.03-.142-.058-.218-.1a7.534,7.534,0,0,0-1.47-.576,2.578,2.578,0,0,0-.288-.05c-.2-.036-.392-.451-.573-.591s-.172-.018-.31-.264c-.113-.2-.2-.149-.355-.268.029-.333.064-.306.227-.5.485-.573.983-.593,1.181-1-.145-.167-.132-.066-.3-.179a1.537,1.537,0,0,0-.263-1.009c-.183-.23-.023-.239.1-.422a1.433,1.433,0,0,1,.462-.611c.108-.078.135-.012.224-.137s.01-.082.166-.192.254-.213.4-.316c.3.032.2.107.43-.095l0-.378c-.5-.419-.636.029-.935.4-.051.062-.051.079-.1.151a.439.439,0,0,1-.1.11c-.072.059-.09.044-.151.1-.084.082-.064.14-.2.264a3.269,3.269,0,0,0-.234.229c-.172.186-.139.04-.322.144-.3.172-.222.141-.523-.005a2,2,0,0,0-.21-.083c-.19-.071-.383-.03-.509-.1s-.227-.024-.438,0l-.4.1c-.2.068-.159.538-.338.747a2.177,2.177,0,0,0-.241.438,1.185,1.185,0,0,1-.151.2c-.139.2-.055.309-.067.56l-.367.409c-.169.181-.032.27-.028.484a1.72,1.72,0,0,0,.033.361.75.75,0,0,0-.3.9c.588.2.519-.162.892-.111.165.023.072.02.12.068-.02.183-.059.108-.262.251a2.688,2.688,0,0,0-.277.253,4.476,4.476,0,0,0-.708.835c-.246.374-.312.236-.628.449-.223.15-.131.068-.257.279-.248.013-.314-.1-.563.008-.122.055-.11.084-.191.138-.471.312-1.283-.264-1.779-.355l-2.236-.407c-.277-.048-.219-.11-.519-.135-.192-.015-.348-.294-.549-.409-.121-.07-.109.011-.251-.108-.29-.241-.162-.26-.559-.415-.146-.058-.264-.2-.411-.267l-.738-.278c-.008.01-.015.013-.016.03-.02.149-.124.1-.146.27s.088.21.2.253c.126.05.188.095.292.138.156.066.155,0,.232.17-.218.04-.762-.087-.769.226.279.182.911-.053,1.162.238-.29.06-.9-.135-.822.206a2.819,2.819,0,0,0,.587.062c.307.012.306.019.478.163l.317.325c.215.178.263.1.519.163.347.088.045.26.308.335.052.014.084.01.124.022.155.05.024.017.109.07.1.062.026.02.139.046a4.082,4.082,0,0,1,.949.549c.376.21.368.148.582.387a1.346,1.346,0,0,0,.446.191c.144,0,.041-.051.241.014.171.055.346.1.523.158.356.109.684.195,1.036.29a10.941,10.941,0,0,1,1.144.186c-.034.141-.174.164-.281.229l-.019.014-.124.088c-.308.2-.831.123-1.291.5-.389.318-.332.188-.646.359-.179.1-.182.076-.226.3-.535.118-.344.167-.725-.191-.087-.082-.05-.071-.12-.164-.048-.064-.076-.112-.12-.168-.114-.152-.2-.116-.336-.237-.533-.486-.143-.736-.7-1.589-.214-.326-.647-.316-1.129-.557-.242-.122-.162.008-.307-.263-.05-.093-.082-.095-.165-.118-.156-.044-.094.027-.193-.1-.49-.612-.335-.5-1.179-.474-.559.019-.265-.108-.671-.364a3.816,3.816,0,0,0-.922-.23c-.165-.046-.316-.019-.444-.124-.184-.146-.125-.14-.361-.214-.208-.067-.1-.124-.387-.182-.166-.033-.281-.015-.468-.043a4.976,4.976,0,0,0-1.523-.117l-.985.155a1.248,1.248,0,0,0-.629.032c-.13.054.006,0-.086.053a.5.5,0,0,1-.216.06,1.888,1.888,0,0,0-.241.052c-.174.054-.376.39-.477.4-.139-.043-.242-.139-.39-.2a7.72,7.72,0,0,0-1.379-.364c-.02.337.815.62.85,1.2a.9.9,0,0,1-.726-.036c-.125-.043-.254-.06-.37-.1-.132-.046-.2-.1-.36-.054-.066.235.332.451.433.811a2.072,2.072,0,0,0,.176.467,1.458,1.458,0,0,0,.139.183c.093.1.1.062.214.126a5.079,5.079,0,0,0,.267,1.146c.083.218.19,1.054.221,1.178a.37.37,0,0,0,.2.268c.172.1.153.028.242.221.373.057.307.369.74.8a6.169,6.169,0,0,1,.768.806,3.458,3.458,0,0,1,.154.347c.089.173.168.156.29.24.046.267-.1.338-.062.618.148.14.3.17.414.367.144.243.155.312.519.313.114.22.284.555.569.6a.889.889,0,0,1,.25.038c.1.046.05.08.181.113.225.058.326-.087.462-.145.151.149.32.7.569.968.1.109.171.127.277.241-.054.145-.026.3-.138.428-.054.058-.083.058-.127.156l-.2.372a.705.705,0,0,1-.108.179c-.05.066-.146.237-.218.351-.132.209,0,.3.058.415.041.079.038.148.073.214a2.289,2.289,0,0,1,.328.529c.031.088.034.159.081.209.089.1.1-.025.145.16a4.88,4.88,0,0,1-1.1.2,5.5,5.5,0,0,1-1.256-.1c-.192-.044-.349-.1-.5-.139-.2-.054-.328-.136-.51-.17a.7.7,0,0,0-.546.041,6.341,6.341,0,0,0-.73.6,1.011,1.011,0,0,0-.294.382c-.082.22.024.376.033.585.037.847-.336.655.478,1.466a3.666,3.666,0,0,1,.3.384,15.054,15.054,0,0,1,1.033,2.327c.44,1.334.094,1.217,1.319,2.016a2.968,2.968,0,0,1,.4.284c.171.179.1.368.194.489.135.17.243-.02.456.154.481.392,1.369.846,1.919.466.014-.2-.174-1.606-.224-1.877-.062-.339.03-.28,0-.571a5.522,5.522,0,0,0-1.476-.046,1.011,1.011,0,0,1-.223.043c-.236-.144-.419-.293-.251-.622l.17-.046c.041-.485.174.047-.046-.542-.056-.154-.076-.12-.174-.247-.388-.012-.624.033-.818-.372-.136-.279-.248-.558-.378-.84a4.638,4.638,0,0,1-.579-1.858,2.628,2.628,0,0,1,1.622.168c.25.092.468.132.728.241a3.311,3.311,0,0,0,.689.316c.591.11.393.387,1.025.907a8.863,8.863,0,0,1,.977.983c-.042.088-.078.18-.118.269-.047.108-.106.172-.151.279-.078.185-.149.407-.223.638-.266.813.04,1.92-.394,3.041a1.091,1.091,0,0,1-.3.562c-.213.165-.23.3-.256.619a1.076,1.076,0,0,0-.319.278c-.118.18-.032.381-.094.518s-.183.216-.223.39c-.046.21.071.338.01.549-.019.071-.06.135-.081.2-.031.094-.04.155-.067.254-.047.169-.107.317-.151.463a13.341,13.341,0,0,1-1.071,2.649,3.874,3.874,0,0,1-.447.766c-.716.715-.872.183-1.274.518-.155.129-.148.452-.319.722s-.145.251-.5.271a6.515,6.515,0,0,0-1.018.214,8.374,8.374,0,0,0-1.073.179c-.825.284.417.782.011,1.462,2.54,2.9,1.372.51,1.427,1.563Z" transform="translate(-31.439 -10.682)"/><path class="h" d="M70.168,88.2l9.656-16.993-.752-.752,2.256-3.76-1.893-.812V64.774h-.874V61.33l1.128-.714V59.8l1.127-.713h.089v-.9h1.361V35.7h-.345a4.2,4.2,0,0,0-2.239-1.075V31.1a11.644,11.644,0,0,1,3.782-.605V27.536h-.518v-.462h.518V23.564h-.518V23.1h.518V19.591h-.518v-.462h.518V15.619h-.518v-.463h.518V13.7l.7-.769v-.01l.7.769v1.465h.518v.463h-.518v3.511h.518v.462h-.518V23.1h.518v.462h-.518v3.512h.518v.462h-.518v2.95l-.7-.009v.009a12.988,12.988,0,0,1,4.478.614v3.526A4.208,4.208,0,0,0,86.4,35.7h-.344V58.187h1.361v.9h.088l1.128.713v.821l1.126.713v3.444h-.873v1.109l-1.893.812h0l2.256,3.76-.752.753L98.154,88.2H97.1L86.684,73.507,85.445,88.2H84.162V66.693h0V88.2H82.878L81.639,73.507,71.22,88.2H70.168Z" transform="translate(-33.043 -12.921)"/><path class="h" d="M64.954,44.72a5.246,5.246,0,0,1,.956,10.4v.957h2.463v.848H68.9l.053,1.149h.605l.855,16.077h-.116l2.582,1.886v1.15h2.079V87.529h-20V77.19h2.079V76.04l2.484-1.886H59.5l.53-16.077H60.7l.032-1.149h.8v-.848H64v-.957a5.246,5.246,0,0,1,.956-10.4Z" transform="translate(-34.212 -10.476)"/></g></g></g><path class="a" d="M86.474,11.071A37.07,37.07,0,1,1,49.4,48.141,37.071,37.071,0,0,1,86.474,11.071Z" transform="translate(3.798 0.851)"/><path class="i" d="M155.918,137.293l4.88-12.262a8.28,8.28,0,0,1,1.83-3.108,3.863,3.863,0,0,1,2.634-.92,4.2,4.2,0,0,1,2.777,1,3.889,3.889,0,0,1,1.469,3.061,8.753,8.753,0,0,1-.863,3.165l-12.708,30.316a13.227,13.227,0,0,1-1.136,2.246,3.836,3.836,0,0,1-3.251,1.611,4.108,4.108,0,0,1-2.748-1.023,3.784,3.784,0,0,1-1.412-2.947,8.563,8.563,0,0,1,.863-3.136l3.288-7.686-8.263-19.494a8.769,8.769,0,0,1-.835-3.109,3.823,3.823,0,0,1,1.81-3.279,4.108,4.108,0,0,1,2.387-.719,3.82,3.82,0,0,1,2.588.891,8.4,8.4,0,0,1,1.8,3.052l4.891,12.348Z" transform="translate(10.951 9.303)"/><path class="i" d="M135.35,129.637V145.7a8.485,8.485,0,0,1-.549,3.516,3.711,3.711,0,0,1-1.488,1.5,4.171,4.171,0,0,1-2.114.587,4.079,4.079,0,0,1-2.113-.6,3.859,3.859,0,0,1-1.488-1.487,8.363,8.363,0,0,1-.55-3.516V129.636q-3.126.029-4.207-1.25a3.779,3.779,0,0,1-.966-2.522,3.693,3.693,0,0,1,1.242-2.824c.683-.644,2-.967,3.932-.967V117.79a8.175,8.175,0,0,1,.55-3.469,3.678,3.678,0,0,1,1.469-1.505,4.186,4.186,0,0,1,4.246,0,3.67,3.67,0,0,1,1.488,1.505,8.182,8.182,0,0,1,.549,3.469v4.283H136.9a7.557,7.557,0,0,1,3.155.5,3.2,3.2,0,0,1,1.355,1.326,3.807,3.807,0,0,1,.531,1.934,3.937,3.937,0,0,1-.531,1.962,3.169,3.169,0,0,1-1.355,1.335,7.54,7.54,0,0,1-3.155.5H135.35Z" transform="translate(9.37 8.629)"/><path class="i" d="M111.164,145.037V126.594a8.413,8.413,0,0,1,.55-3.506,3.713,3.713,0,0,1,1.469-1.5,4.148,4.148,0,0,1,2.132-.587,4.253,4.253,0,0,1,2.132.587,3.543,3.543,0,0,1,1.469,1.5,8.309,8.309,0,0,1,.55,3.506v18.443a8.307,8.307,0,0,1-.55,3.505,3.678,3.678,0,0,1-1.469,1.488,4.1,4.1,0,0,1-4.245.01,3.692,3.692,0,0,1-1.487-1.5,8.3,8.3,0,0,1-.55-3.506Z" transform="translate(8.546 9.303)"/><path class="i" d="M97.974,112.079a18.955,18.955,0,0,1,6.766,1.166q4.365,1.648,4.359,4.947a4.159,4.159,0,0,1-.835,2.587,3.191,3.191,0,0,1-2.681,1.251,9.874,9.874,0,0,1-3.194-.872,12.055,12.055,0,0,0-4.54-.948,8.557,8.557,0,0,0-6.292,2.361q-3.269,3.24-3.268,9.552,0,6.183,3.222,9.212a8.977,8.977,0,0,0,6.377,2.359,8.616,8.616,0,0,0,3.506-.578l2.577-1.137a5.03,5.03,0,0,1,1.972-.446,3.17,3.17,0,0,1,2.548,1.308,3.919,3.919,0,0,1,.949,2.644,4.808,4.808,0,0,1-2.691,4.227,16.909,16.909,0,0,1-8.87,2.17,18.144,18.144,0,0,1-13.078-4.89q-5.843-5.615-5.838-14.917a23.477,23.477,0,0,1,1.488-8.472,17.278,17.278,0,0,1,4.2-6.472A18.7,18.7,0,0,1,97.974,112.079Z" transform="translate(6.071 8.617)"/><path class="i" d="M56.351,137.115l4.881-12.262a8.259,8.259,0,0,1,1.829-3.109,3.866,3.866,0,0,1,2.634-.919,4.2,4.2,0,0,1,2.777,1,3.889,3.889,0,0,1,1.469,3.061,8.781,8.781,0,0,1-.863,3.165L56.371,158.362a13.4,13.4,0,0,1-1.137,2.247,3.838,3.838,0,0,1-3.251,1.611,4.1,4.1,0,0,1-2.747-1.024,3.78,3.78,0,0,1-1.413-2.946,8.6,8.6,0,0,1,.863-3.137l3.288-7.686-8.263-19.494a8.792,8.792,0,0,1-.835-3.109,3.825,3.825,0,0,1,1.81-3.279,4.1,4.1,0,0,1,2.389-.719,3.819,3.819,0,0,1,2.587.891,8.427,8.427,0,0,1,1.8,3.052l4.89,12.348Z" transform="translate(3.296 9.289)"/><path class="i" d="M11.676,128.29,8.842,146.164A8.682,8.682,0,0,1,7.7,149.671a3.88,3.88,0,0,1-3.384,1.611,4.3,4.3,0,0,1-2.758-.976A4.127,4.127,0,0,1,0,146.923a15.308,15.308,0,0,1,.247-2.142l4.5-27.587a5.773,5.773,0,0,1,1.7-3.506,6.121,6.121,0,0,1,4.142-1.469,5.829,5.829,0,0,1,3.554,1.109A5.041,5.041,0,0,1,16,115.943l6.4,19.513,5.856-18.661a6.572,6.572,0,0,1,2.359-3.44A5.6,5.6,0,0,1,34,112.274a5.978,5.978,0,0,1,3.884,1.384,5.187,5.187,0,0,1,1.838,3.137L44.59,144.7a15.022,15.022,0,0,1,.275,2.246,4.154,4.154,0,0,1-1.526,3.336,4.407,4.407,0,0,1-2.806,1,4.005,4.005,0,0,1-3.42-1.611,8.107,8.107,0,0,1-1.166-3.506L33.027,128.29l-5.364,17.845c-.407,1.317-.72,2.217-.938,2.71a4.261,4.261,0,0,1-.835,1.242,4.625,4.625,0,0,1-3.335,1.194,4.637,4.637,0,0,1-3.052-1,6.242,6.242,0,0,1-1.81-3.109l-6.018-18.878Z" transform="translate(0 8.627)"/><path class="j" d="M115.618,101.4a7.3,7.3,0,0,1,5.16,12.457l-5.16,5.161-5.159-5.161a7.3,7.3,0,0,1,5.159-12.457Zm0,4.3a3.1,3.1,0,1,1-3.1,3.1A3.1,3.1,0,0,1,115.619,105.7Z" transform="translate(8.328 7.796)"/><path class="k" d="M52.681,14.349a48.993,48.993,0,1,1,0,69.286A48.992,48.992,0,0,1,52.681,14.349Zm5.133,5.132A41.733,41.733,0,0,0,116.83,78.506l.006-.005A41.734,41.734,0,0,0,57.814,19.482Z" transform="translate(2.947 0)"/><path class="i" d="M126.374,93.515,112.725,79.865a8.828,8.828,0,0,1-2.189-3,3.884,3.884,0,0,1-.022-2.2,4.356,4.356,0,0,1,1.143-2.013,4.449,4.449,0,0,1,2.014-1.144,3.691,3.691,0,0,1,2.2.022,8.7,8.7,0,0,1,3,2.188l13.649,13.649a8.708,8.708,0,0,1,2.188,3,3.863,3.863,0,0,1,.015,2.188,4.3,4.3,0,0,1-3.135,3.15,3.88,3.88,0,0,1-2.21-.008,8.7,8.7,0,0,1-3-2.188Z" transform="translate(8.485 5.486)"/></g></svg>