<svg xmlns="http://www.w3.org/2000/svg" width="49.047" height="108.328" viewBox="0 0 49.047 108.328"><defs><style>.a{fill:#b4eefb;stroke:rgba(0,0,0,0);}</style></defs><path class="a" d="M313.362,171.921l0,0c.482-.745,1.653-.754,2.353-.76h.111c-.785.237-1.614.493-2.463.762Zm3.585-1.1v0c1.179-.575,3.377-1.774,3.47-1.825v-.005a15.9,15.9,0,0,1-.037-2.169,10.551,10.551,0,0,1,.268-1.759,8.581,8.581,0,0,0,.247-3.136c-.279-1.853-1.433-8.072-1.821-9.892-.118-.555-.253-1.413-.439-2.6-.437-2.786-1.1-6.994-2.341-12.466a117.212,117.212,0,0,1-2.36-20.479,1.061,1.061,0,0,1-.586.23.5.5,0,0,1-.441-.267c0-.022-.5-2.212-.8-3.287a2.6,2.6,0,0,1,.6-2.052,6.922,6.922,0,0,0,.537-.993,11.925,11.925,0,0,0,.911-4.653c-.125-.814.6-3.464,1.073-5.218a17.117,17.117,0,0,0,.423-1.7c.018-.5.385-3,.4-3.126l0,0A12.406,12.406,0,0,1,312.73,98.9a4.516,4.516,0,0,1-2.5,1.011,2.178,2.178,0,0,1-1.9-1.166,10.421,10.421,0,0,1-.942-2.2,17.937,17.937,0,0,0-.686-1.8c-.478-1.047-.3-3.625-.182-5.331a9.518,9.518,0,0,0,.053-1.475.307.307,0,0,1-.219-.1c-.294-.318-.253-1.266-.235-1.671,0-.037,0-.069,0-.1.013-.368.646-.606.652-.608s.134-1.424-.085-1.63a5.746,5.746,0,0,1-.94-1.688c-.049,0-.094.005-.135.005a2.287,2.287,0,0,1-2.113-1.973,3.523,3.523,0,0,1,.7-2.758,2.66,2.66,0,0,1,1.929-.779,1.939,1.939,0,0,1,.327.023,6.348,6.348,0,0,0,.947.123c.116,0,.189-.015.215-.045a.045.045,0,0,0,.011-.037c0-.024-.3-2.537.346-3.31.533-.637,1.973-.686,2.4-.686a4.291,4.291,0,0,1,.683.045,27.906,27.906,0,0,1,4.163,1.821,16.507,16.507,0,0,0,3.32,2.023,8.757,8.757,0,0,1,.848.33,2.094,2.094,0,0,0,.645.217.169.169,0,0,0,.178-.118,4.677,4.677,0,0,0,.085-1.082c0-.19,0-.467,0-.871,0-.448-.013-.869-.013-.872a14.239,14.239,0,0,1-.128-2.777c-.439-.076-3.443-1.421-3.727-2.157a.714.714,0,0,1-.047-.667.661.661,0,0,1,.587-.216,4.381,4.381,0,0,1,1.68.445,8.427,8.427,0,0,0,2.253.907,12.061,12.061,0,0,1,4.01-4.429,1.587,1.587,0,0,1,.967-.311,4.05,4.05,0,0,1,.71.084,5.22,5.22,0,0,0,.525.076,1.656,1.656,0,0,1,1.408.68A6.329,6.329,0,0,0,330.2,66.9a8.629,8.629,0,0,0,1.543.859c2,.782,1.148,3.193.692,4.488l-.056.161c-.089.253-.178.49-.257.7-.325.864-.54,1.436-.229,1.656,1.719.9,3.216,2.577,3.08,3.45-.044.283-.253.458-.62.522a2.393,2.393,0,0,1-.407.034A4.158,4.158,0,0,1,332,78.181c-.258-.139-.477-.276-.653-.386a1.436,1.436,0,0,0-.363-.2c-.011,0-.017,0-.019.014a5.43,5.43,0,0,0,.589,2.735,2.229,2.229,0,0,1,.561-.077c.892,0,1.636.647,2.341,2.035,3.075.058,3.289,3.211,3.462,5.744v.016q.015.213.029.42a4.191,4.191,0,0,1,3.02,3.535c2.922,1.418,3.2,4.61,3.317,5.974a4.249,4.249,0,0,0,.056.486c.029.125.052.233.074.339a10.78,10.78,0,0,0,.587,1.915c.449,1.2-.014,6.708-.166,8.518-.023.275-.038.455-.04.5,0,.116-.129.174-.373.174a3.607,3.607,0,0,1-.712-.1s0,0,0,.012c-.011.158-.049.565-.174,1.526-.147,1.191-1.479,3.537-2.193,3.863a16.811,16.811,0,0,1-5.292,1.01c.7,1.114.507,3.464.433,4.349-.012.146-.021.258-.024.324a13.951,13.951,0,0,0,.636,2.9l0,.008c.1.361.2.722.319,1.1a16.631,16.631,0,0,1,.821,3.91,26.1,26.1,0,0,0,.829,4.169,22.105,22.105,0,0,1,.537,2.452,2.967,2.967,0,0,0,1.085,1.928c.2.2.4.406.593.645a2.012,2.012,0,0,1,.217,1.889,5.966,5.966,0,0,0-.151,1.025c-.025.712.749,1.568,1.645,2.559a20.347,20.347,0,0,1,1.623,1.958c1.329,1.911,4.1,13.526,4.279,14.66.044.286.063.476.076.614.031.323.031.323.269.5.083.063.2.149.351.279a2.115,2.115,0,0,1,.88,1.79q.012.09.025.188a1.518,1.518,0,0,0,.427.971c-3.725.288-7.525.723-11.295,1.293a24.663,24.663,0,0,1,4.591-.835,2.173,2.173,0,0,1-.043-.767,5.02,5.02,0,0,0-.015-.945.884.884,0,0,0-.58-.794,1.894,1.894,0,0,1-1-1.2c-.2-.545-.321-.951-.428-1.309a6.841,6.841,0,0,0-.828-1.935,4.69,4.69,0,0,0-.712-.948,6.031,6.031,0,0,1-.873-1.165,29.227,29.227,0,0,1-1.774-3.962,15.033,15.033,0,0,0-.709-1.666,2.17,2.17,0,0,1-.455-1.734,1.288,1.288,0,0,0-.566-1.205,4.3,4.3,0,0,1-.625-.666c-2.224-1.541-3.563-4.915-4.541-7.379l-.153-.384c-.978-2.452-3.511-7.109-3.536-7.156,0,.014-.012.225-.033.575-.433,7.112-.7,11.178-.8,12.084-.126,1.178-.061,1.237.251,1.521a3.59,3.59,0,0,1,.42.441,1.393,1.393,0,0,1,.2,1.346,2.262,2.262,0,0,0-.057,1,1.262,1.262,0,0,0,.288.649c.119.144.222.269.233.91,0,.216.023.738.05,1.461.124,3.252.382,10.017,0,11.627a7.439,7.439,0,0,0-.207,2.82,4.018,4.018,0,0,1,.033.543.377.377,0,0,0,.059.267.112.112,0,0,0,.084.034c.148,0,.364-.223.367-.225a.551.551,0,0,1,.01.063c.021.149.075.546.126,1.035C324.611,168.7,320.757,169.7,316.947,170.824Zm-3.121-93.978a.289.289,0,0,0-.05,0c-.519.093-1.816.159-1.871.162,0,.032-.313,3.459-.244,3.685a1.456,1.456,0,0,0,.092.215,1.754,1.754,0,0,1,.214.787c.022.638-1.21,2.3-1.263,2.369-.289.384-.2.657-.055,1.109.058.18.124.383.18.633a50.323,50.323,0,0,1-.042,5.6c.007-.011.921-1.305,1.762-2.53a11.613,11.613,0,0,1,3.494-5.453l0,0c.116-.108.226-.211.327-.308a3.259,3.259,0,0,1,2.214-.728,3.874,3.874,0,0,1,.439.022.5.5,0,0,1-.049-.049,38.757,38.757,0,0,1-2.7-3.06C315.868,78.722,314.47,76.846,313.826,76.846Z" transform="translate(-302.984 -64.5)"/></svg>