<svg xmlns="http://www.w3.org/2000/svg" width="129.702" height="42.191" viewBox="0 0 129.702 42.191"><defs><style>.a{fill:#b4eefb;stroke:rgba(0,0,0,0);}</style></defs><path class="a" d="M316.227,128.591c-.7-.525-1.65-1.074-2.184-1.47-.149-.114-.286-.239-.427-.361-.2-.172-.412-.349-.615-.533a7.606,7.606,0,0,0-2.513-1.623c-.416-.161-.878-.3-1.317-.447a85.678,85.678,0,0,0-18.982-3.732c-30.832-1.505-52.409-1.482-67.2-.957a15.676,15.676,0,0,1-5.406-2.728l-2.011-1.6-2.85-2.266-1.317-1.047-5.775-4.6-10.553-8.4a4.517,4.517,0,0,0-2.689-.976l-3.426-.078A.524.524,0,0,0,188.5,98a.531.531,0,0,0-.063.506l.992,2.611.145.376,6.884,18.037.141.361.6,1.576c-.18.024-.4.047-.557.071a.936.936,0,0,0-.435,1.666l.047.031c-.686.078-1.258.157-1.78.231l-.02,0-.419.063-.055.008a.319.319,0,0,0-.243.278c0,.02-.035.02-.035.039a.328.328,0,0,0,.263.329c.6.122,1.364.259,2.223.4.776.129,1.643.255,2.591.372a64.1,64.1,0,0,0,15.159,6.617H212.82a.784.784,0,0,0-.208,1.541.738.738,0,0,0,.208.027h1.96a.786.786,0,0,0,.784-.784.774.774,0,0,0-.141-.349,121.483,121.483,0,0,0,22.027,4.061l11.463.278c1.788.169,3.552.3,5.112.337.486.012.906,0,1.333,0l-.008.341.278.071c.2.051.408.1.619.145a80.612,80.612,0,0,0,14.285,1.713,18.452,18.452,0,0,0,5.743-.482,3.6,3.6,0,0,0,.886-.4,2.36,2.36,0,0,0,.412-.325l.016-.717,5.657.137a123.017,123.017,0,0,0,19.08-.729c8.087-1.066,14.689-3.3,14.771-6.813C317.1,129.324,316.725,128.959,316.227,128.591Z" transform="translate(-187.895 -97.269)"/></svg>