<svg xmlns="http://www.w3.org/2000/svg" width="17.5" height="10" viewBox="0 0 17.5 10"><path d="M12.148-12.344a.467.467,0,0,1,.332-.156.467.467,0,0,1,.332.156l4.531,4.531A.371.371,0,0,1,17.5-7.5a.371.371,0,0,1-.156.313L12.813-2.656a.467.467,0,0,1-.332.156.467.467,0,0,1-.332-.156l-.273-.273a.371.371,0,0,1-.156-.312.486.486,0,0,1,.156-.352l3.281-3.242H.469a.452.452,0,0,1-.332-.137A.452.452,0,0,1,0-7.3V-7.7a.452.452,0,0,1,.137-.332.452.452,0,0,1,.332-.137H15.156l-3.281-3.242a.486.486,0,0,1-.156-.352.371.371,0,0,1,.156-.312Z" transform="translate(0 12.5)" fill="#fff"/></svg>